<svg width="42" height="42" viewBox="0 0 42 42" fill="none" xmlns="http://www.w3.org/2000/svg">
<path d="M14.3336 10.92L7.66699 20.58L14.3336 30.24H27.6668L34.3334 20.58L27.6668 10.92H14.3336Z" stroke="#F99706"/>
<path d="M21.0004 13.7941L14.3115 18.1177V23.4706L21.0004 27.5882L27.6893 23.4706V18.1177L21.0004 13.7941Z" stroke="black" stroke-width="2"/>
<ellipse cx="20.9335" cy="20.5882" rx="1.33778" ry="1.37255" fill="#FF5353"/>
<path d="M34.311 13.8627L27.6221 18.1863V23.5392L34.311 27.6568L40.9999 23.5392V18.1863L34.311 13.8627Z" stroke="black"/>
<ellipse cx="34.244" cy="20.6568" rx="1.33778" ry="1.37255" fill="#FF5353"/>
<path d="M7.6889 13.7255L1 18.049V23.4019L7.6889 27.5196L14.3778 23.4019V18.049L7.6889 13.7255Z" stroke="black"/>
<ellipse cx="7.62196" cy="20.5196" rx="1.33778" ry="1.37255" fill="#FF5353"/>
<path d="M14.3774 4.11761L7.68848 8.44114V13.7941L14.3774 17.9117L21.0663 13.7941V8.44114L14.3774 4.11761Z" stroke="black"/>
<ellipse cx="14.3104" cy="10.9117" rx="1.33778" ry="1.37255" fill="#FF5353"/>
<path d="M14.2446 23.3333L7.55566 27.6568V33.0098L14.2446 37.1274L20.9335 33.0098V27.6568L14.2446 23.3333Z" stroke="black"/>
<ellipse cx="14.1776" cy="30.1274" rx="1.33778" ry="1.37255" fill="#FF5353"/>
<path d="M27.7558 4.25488L21.0669 8.57841V13.9314L27.7558 18.049L34.4447 13.9314V8.57841L27.7558 4.25488Z" stroke="black"/>
<ellipse cx="27.6889" cy="11.049" rx="1.33778" ry="1.37255" fill="#FF5353"/>
<path d="M27.6215 23.4706L20.9326 27.7941V33.1471L27.6215 37.2647L34.3104 33.1471V27.7941L27.6215 23.4706Z" stroke="black"/>
<ellipse cx="27.5546" cy="30.2647" rx="1.33778" ry="1.37255" fill="#FF5353"/>
<path d="M3.71067 11.3922C3.71067 12.0379 3.20378 12.5392 2.60534 12.5392C2.00689 12.5392 1.5 12.0379 1.5 11.3922C1.5 10.7465 2.00689 10.2451 2.60534 10.2451C3.20378 10.2451 3.71067 10.7465 3.71067 11.3922Z" stroke="black"/>
<path d="M3.71067 30.6078C3.71067 29.9621 3.20378 29.4608 2.60534 29.4608C2.00689 29.4608 1.5 29.9621 1.5 30.6078C1.5 31.2535 2.00689 31.7549 2.60534 31.7549C3.20378 31.7549 3.71067 31.2535 3.71067 30.6078Z" stroke="black"/>
<path d="M40.4992 11.3922C40.4992 12.0379 39.9924 12.5392 39.3939 12.5392C38.7955 12.5392 38.2886 12.0379 38.2886 11.3922C38.2886 10.7465 38.7955 10.2451 39.3939 10.2451C39.9924 10.2451 40.4992 10.7465 40.4992 11.3922Z" stroke="black"/>
<path d="M40.4992 30.6078C40.4992 29.9621 39.9924 29.4608 39.3939 29.4608C38.7955 29.4608 38.2886 29.9621 38.2886 30.6078C38.2886 31.2535 38.7955 31.7549 39.3939 31.7549C39.9924 31.7549 40.4992 31.2535 40.4992 30.6078Z" stroke="black"/>
<path d="M22.0381 1.64706C22.0381 2.29273 21.5312 2.79412 20.9327 2.79412C20.3343 2.79412 19.8274 2.29273 19.8274 1.64706C19.8274 1.00138 20.3343 0.5 20.9327 0.5C21.5312 0.5 22.0381 1.00138 22.0381 1.64706Z" stroke="black"/>
<path d="M22.0378 40.3529C22.0378 39.7073 21.5309 39.2059 20.9325 39.2059C20.334 39.2059 19.8271 39.7073 19.8271 40.3529C19.8271 40.9986 20.334 41.5 20.9325 41.5C21.5309 41.5 22.0378 40.9986 22.0378 40.3529Z" stroke="black"/>
</svg>
