<?xml version="1.0" encoding="UTF-8"?>
<!DOCTYPE svg PUBLIC "-//W3C//DTD SVG 1.1//EN" "http://www.w3.org/Graphics/SVG/1.1/DTD/svg11.dtd">
<svg xmlns="http://www.w3.org/2000/svg" version="1.1" width="329px" height="303px" style="shape-rendering:geometricPrecision; text-rendering:geometricPrecision; image-rendering:optimizeQuality; fill-rule:evenodd; clip-rule:evenodd" xmlns:xlink="http://www.w3.org/1999/xlink">
<g><path style="opacity:1" fill="#fdfdfd" d="M -0.5,-0.5 C 109.167,-0.5 218.833,-0.5 328.5,-0.5C 328.5,100.5 328.5,201.5 328.5,302.5C 218.833,302.5 109.167,302.5 -0.5,302.5C -0.5,201.5 -0.5,100.5 -0.5,-0.5 Z"/></g>
<g><path style="opacity:1" fill="#a29695" d="M 137.5,16.5 C 136.833,16.1667 136.167,15.8333 135.5,15.5C 136.924,5.00713 137.591,5.34047 137.5,16.5 Z"/></g>
<g><path style="opacity:1" fill="#221c19" d="M 135.5,15.5 C 136.167,15.8333 136.833,16.1667 137.5,16.5C 140.5,19.1667 143.5,21.8333 146.5,24.5C 146.565,24.9382 146.399,25.2716 146,25.5C 145.184,24.1772 144.017,23.5106 142.5,23.5C 138.74,22.0742 136.407,19.4075 135.5,15.5 Z"/></g>
<g><path style="opacity:1" fill="#2e2726" d="M 183.5,23.5 C 181.983,23.5106 180.816,24.1772 180,25.5C 179.601,25.2716 179.435,24.9382 179.5,24.5C 182.808,21.3648 186.308,18.3648 190,15.5C 189.616,19.4051 187.449,22.0718 183.5,23.5 Z"/></g>
<g><path style="opacity:1" fill="#76655e" d="M 142.5,23.5 C 144.017,23.5106 145.184,24.1772 146,25.5C 146.399,25.2716 146.565,24.9382 146.5,24.5C 147.319,27.3054 147.819,30.3054 148,33.5C 151.509,34.9226 155.009,36.4226 158.5,38C 159.381,38.7083 160.047,39.5416 160.5,40.5C 155.065,39.1885 149.899,37.1885 145,34.5C 144.601,34.7284 144.435,35.0618 144.5,35.5C 143.775,31.6047 143.109,27.6047 142.5,23.5 Z"/></g>
<g><path style="opacity:1" fill="#a29a98" d="M 183.5,23.5 C 182.891,27.6047 182.225,31.6047 181.5,35.5C 181.565,35.0618 181.399,34.7284 181,34.5C 176.345,36.9942 171.512,38.9942 166.5,40.5C 167.031,38.3763 168.365,36.8763 170.5,36C 173.234,35.7896 175.734,34.9563 178,33.5C 178.181,30.3054 178.681,27.3054 179.5,24.5C 179.435,24.9382 179.601,25.2716 180,25.5C 180.816,24.1772 181.983,23.5106 183.5,23.5 Z"/></g>
<g><path style="opacity:1" fill="#312725" d="M 181.5,35.5 C 178.481,37.5243 175.148,39.191 171.5,40.5C 170.575,41.3569 169.908,42.3569 169.5,43.5C 167.801,46.151 166.134,46.151 164.5,43.5C 164.932,42.2905 165.599,41.2905 166.5,40.5C 171.512,38.9942 176.345,36.9942 181,34.5C 181.399,34.7284 181.565,35.0618 181.5,35.5 Z"/></g>
<g><path style="opacity:1" fill="#2b1e19" d="M 160.5,40.5 C 160.833,41.1667 161.167,41.8333 161.5,42.5C 160.253,46.9905 158.586,47.3238 156.5,43.5C 156.586,42.5041 156.252,41.6708 155.5,41C 151.481,39.6051 147.814,37.7717 144.5,35.5C 144.435,35.0618 144.601,34.7284 145,34.5C 149.899,37.1885 155.065,39.1885 160.5,40.5 Z"/></g>
<g><path style="opacity:1" fill="#dbd4d2" d="M 172.5,47.5 C 172.433,46.0413 172.766,44.7079 173.5,43.5C 175.383,41.864 177.383,41.5307 179.5,42.5C 178.603,45.6574 176.769,47.9907 174,49.5C 172.97,49.1639 172.47,48.4972 172.5,47.5 Z"/></g>
<g><path style="opacity:1" fill="#91817c" d="M 146.5,39.5 C 147.856,41.2699 149.689,42.6032 152,43.5C 152.606,46.3856 154.106,48.5522 156.5,50C 155.359,50.7412 155.359,51.5745 156.5,52.5C 157.002,53.521 157.668,53.6877 158.5,53C 157.748,52.3292 157.414,51.4959 157.5,50.5C 159.167,51.8333 160.833,53.1667 162.5,54.5C 162.5,54.8333 162.5,55.1667 162.5,55.5C 160.821,55.2852 159.821,55.9519 159.5,57.5C 158.778,57.9175 158.278,58.5842 158,59.5C 157.667,58.8333 157.333,58.1667 157,57.5C 156.722,58.4158 156.222,59.0825 155.5,59.5C 156.624,54.8368 154.957,52.0035 150.5,51C 146.066,48.0158 144.733,44.1825 146.5,39.5 Z"/></g>
<g><path style="opacity:1" fill="#6f615b" d="M 146.5,39.5 C 150.444,40.3823 153.611,42.3823 156,45.5C 156.464,44.9056 156.631,44.2389 156.5,43.5C 158.586,47.3238 160.253,46.9905 161.5,42.5C 162.391,43.1098 163.391,43.4431 164.5,43.5C 166.134,46.151 167.801,46.151 169.5,43.5C 169.369,44.2389 169.536,44.9056 170,45.5C 171.039,44.2899 172.206,43.2899 173.5,42.5C 173.5,42.8333 173.5,43.1667 173.5,43.5C 172.766,44.7079 172.433,46.0413 172.5,47.5C 170.926,49.1016 170.259,51.1016 170.5,53.5C 169.448,53.6495 168.448,53.4828 167.5,53C 168.252,52.3292 168.586,51.4959 168.5,50.5C 164.924,45.2994 161.257,45.2994 157.5,50.5C 157.414,51.4959 157.748,52.3292 158.5,53C 157.668,53.6877 157.002,53.521 156.5,52.5C 155.359,51.5745 155.359,50.7412 156.5,50C 154.106,48.5522 152.606,46.3856 152,43.5C 149.689,42.6032 147.856,41.2699 146.5,39.5 Z"/></g>
<g><path style="opacity:1" fill="#3e3230" d="M 168.5,50.5 C 166.754,52.2516 164.754,53.5849 162.5,54.5C 160.833,53.1667 159.167,51.8333 157.5,50.5C 161.257,45.2994 164.924,45.2994 168.5,50.5 Z"/></g>
<g><path style="opacity:1" fill="#b1aaaa" d="M 170.5,53.5 C 170.259,51.1016 170.926,49.1016 172.5,47.5C 172.47,48.4972 172.97,49.1639 174,49.5C 176.769,47.9907 178.603,45.6574 179.5,42.5C 177.383,41.5307 175.383,41.864 173.5,43.5C 173.5,43.1667 173.5,42.8333 173.5,42.5C 175.32,40.5516 177.654,39.5516 180.5,39.5C 181.041,47.126 177.708,51.7927 170.5,53.5 Z"/></g>
<g><path style="opacity:1" fill="#433f39" d="M 162.5,55.5 C 164.099,55.2322 165.432,55.5655 166.5,56.5C 165.908,59.1272 165.575,61.7938 165.5,64.5C 164.833,64.8333 164.167,65.1667 163.5,65.5C 162.167,65.5 160.833,65.5 159.5,65.5C 159.5,62.8333 159.5,60.1667 159.5,57.5C 159.821,55.9519 160.821,55.2852 162.5,55.5 Z"/></g>
<g><path style="opacity:1" fill="#6e5c57" d="M 159.5,57.5 C 159.5,60.1667 159.5,62.8333 159.5,65.5C 160.833,65.5 162.167,65.5 163.5,65.5C 162.498,67.0109 161.831,68.6776 161.5,70.5C 159.265,70.2053 157.265,70.5386 155.5,71.5C 154.833,71.1667 154.167,70.8333 153.5,70.5C 153.5,70.1667 153.5,69.8333 153.5,69.5C 154.323,66.3162 154.99,62.9828 155.5,59.5C 156.222,59.0825 156.722,58.4158 157,57.5C 157.333,58.1667 157.667,58.8333 158,59.5C 158.278,58.5842 158.778,57.9175 159.5,57.5 Z"/></g>
<g><path style="opacity:1" fill="#8c857d" d="M 166.5,56.5 C 167.268,57.2625 167.768,58.2625 168,59.5C 168.308,58.6919 168.808,58.0253 169.5,57.5C 170.706,61.0715 171.373,64.7382 171.5,68.5C 169.735,69.4614 167.735,69.7947 165.5,69.5C 166.096,67.602 166.096,65.9354 165.5,64.5C 165.575,61.7938 165.908,59.1272 166.5,56.5 Z"/></g>
<g><path style="opacity:1" fill="#abb0ba" d="M 165.5,64.5 C 166.096,65.9354 166.096,67.602 165.5,69.5C 167.735,69.7947 169.735,69.4614 171.5,68.5C 175.605,69.1086 179.605,69.7752 183.5,70.5C 179.895,70.5286 176.395,71.1953 173,72.5C 170.496,72.3072 168.163,71.6405 166,70.5C 164.624,70.6842 163.791,71.3509 163.5,72.5C 162.5,72.5 161.5,72.5 160.5,72.5C 160.167,72.5 159.833,72.5 159.5,72.5C 158.5,72.5 157.5,72.5 156.5,72.5C 155.833,72.5 155.5,72.1667 155.5,71.5C 157.265,70.5386 159.265,70.2053 161.5,70.5C 161.831,68.6776 162.498,67.0109 163.5,65.5C 164.167,65.1667 164.833,64.8333 165.5,64.5 Z"/></g>
<g><path style="opacity:1" fill="#bfbeca" d="M 153.5,69.5 C 153.5,69.8333 153.5,70.1667 153.5,70.5C 151.821,70.2852 150.821,70.9519 150.5,72.5C 148.167,72.5 145.833,72.5 143.5,72.5C 142.167,72.5 140.833,72.5 139.5,72.5C 135.5,72.5 131.5,72.5 127.5,72.5C 136.046,71.679 144.712,70.679 153.5,69.5 Z"/></g>
<g><path style="opacity:1" fill="#39366c" d="M 153.5,70.5 C 154.167,70.8333 154.833,71.1667 155.5,71.5C 155.5,72.1667 155.833,72.5 156.5,72.5C 154.5,73.8333 152.5,73.8333 150.5,72.5C 150.821,70.9519 151.821,70.2852 153.5,70.5 Z"/></g>
<g><path style="opacity:1" fill="#484876" d="M 183.5,70.5 C 183.5,70.8333 183.5,71.1667 183.5,71.5C 180.572,72.8197 177.239,73.4864 173.5,73.5C 169.982,73.4984 166.649,73.1651 163.5,72.5C 163.791,71.3509 164.624,70.6842 166,70.5C 168.163,71.6405 170.496,72.3072 173,72.5C 176.395,71.1953 179.895,70.5286 183.5,70.5 Z"/></g>
<g><path style="opacity:1" fill="#605b65" d="M 183.5,71.5 C 184.167,71.5 184.5,71.8333 184.5,72.5C 184.5,72.8333 184.5,73.1667 184.5,73.5C 184.5,73.8333 184.5,74.1667 184.5,74.5C 176.826,74.6664 169.159,74.4997 161.5,74C 160.944,73.6174 160.611,73.1174 160.5,72.5C 161.5,72.5 162.5,72.5 163.5,72.5C 166.649,73.1651 169.982,73.4984 173.5,73.5C 177.239,73.4864 180.572,72.8197 183.5,71.5 Z"/></g>
<g><path style="opacity:1" fill="#857157" d="M 139.5,72.5 C 140.833,72.5 142.167,72.5 143.5,72.5C 146.55,73.9352 149.883,74.6019 153.5,74.5C 155.952,74.4609 157.952,73.7943 159.5,72.5C 159.833,72.5 160.167,72.5 160.5,72.5C 160.611,73.1174 160.944,73.6174 161.5,74C 169.159,74.4997 176.826,74.6664 184.5,74.5C 177.833,75.1667 171.167,75.8333 164.5,76.5C 162.784,76.6287 161.117,76.962 159.5,77.5C 157.257,76.1883 154.59,75.5217 151.5,75.5C 145.173,76.0147 138.84,76.348 132.5,76.5C 130.756,82.9993 130.089,89.666 130.5,96.5C 131.092,99.1272 131.425,101.794 131.5,104.5C 130.833,104.5 130.167,104.5 129.5,104.5C 128.78,98.8623 128.447,93.1956 128.5,87.5C 129.341,82.9903 130.008,78.3236 130.5,73.5C 133.713,73.81 136.713,73.4767 139.5,72.5 Z"/></g>
<g><path style="opacity:1" fill="#5f5b6e" d="M 143.5,72.5 C 145.833,72.5 148.167,72.5 150.5,72.5C 152.5,73.8333 154.5,73.8333 156.5,72.5C 157.5,72.5 158.5,72.5 159.5,72.5C 157.952,73.7943 155.952,74.4609 153.5,74.5C 149.883,74.6019 146.55,73.9352 143.5,72.5 Z"/></g>
<g><path style="opacity:1" fill="#2e241d" d="M 164.5,76.5 C 165.833,77.1667 167.167,77.8333 168.5,78.5C 169.833,79.1667 171.167,79.8333 172.5,80.5C 171.735,80.9234 170.902,81.2568 170,81.5C 165.181,78.877 160.348,78.877 155.5,81.5C 154.702,81.0431 154.369,80.3764 154.5,79.5C 156.322,79.1692 157.989,78.5025 159.5,77.5C 161.117,76.962 162.784,76.6287 164.5,76.5 Z"/></g>
<g><path style="opacity:1" fill="#af8343" d="M 143.5,79.5 C 142.188,81.7432 141.522,84.4098 141.5,87.5C 141.844,91.5953 142.51,95.5953 143.5,99.5C 135.527,99.6737 135.527,100.174 143.5,101C 148.155,101.499 152.821,101.666 157.5,101.5C 157.842,102.338 158.508,102.672 159.5,102.5C 154.074,103.205 148.074,103.871 141.5,104.5C 138.167,104.5 134.833,104.5 131.5,104.5C 131.425,101.794 131.092,99.1272 130.5,96.5C 133.518,96.6646 136.518,96.498 139.5,96C 137.58,90.8027 136.913,85.3027 137.5,79.5C 139.691,78.7093 141.691,78.7093 143.5,79.5 Z"/></g>
<g><path style="opacity:1" fill="#b38c59" d="M 143.5,79.5 C 146.833,79.5 150.167,79.5 153.5,79.5C 152.552,80.9779 151.219,81.9779 149.5,82.5C 149.5,87.8333 149.5,93.1667 149.5,98.5C 152.167,99.1667 154.833,99.8333 157.5,100.5C 157.5,100.833 157.5,101.167 157.5,101.5C 152.821,101.666 148.155,101.499 143.5,101C 135.527,100.174 135.527,99.6737 143.5,99.5C 142.51,95.5953 141.844,91.5953 141.5,87.5C 141.522,84.4098 142.188,81.7432 143.5,79.5 Z"/></g>
<g><path style="opacity:1" fill="#948b7e" d="M 153.5,79.5 C 153.833,79.5 154.167,79.5 154.5,79.5C 154.369,80.3764 154.702,81.0431 155.5,81.5C 160.348,78.877 165.181,78.877 170,81.5C 170.902,81.2568 171.735,80.9234 172.5,80.5C 173.833,81.1667 175.167,81.8333 176.5,82.5C 175.833,82.5 175.5,82.8333 175.5,83.5C 174.833,83.5 174.167,83.5 173.5,83.5C 170.713,82.5233 167.713,82.19 164.5,82.5C 163.203,87.0665 163.203,91.7331 164.5,96.5C 163.833,96.5 163.167,96.5 162.5,96.5C 162.5,95.5 162.5,94.5 162.5,93.5C 162.5,89.8333 162.5,86.1667 162.5,82.5C 159.167,82.5 155.833,82.5 152.5,82.5C 152.167,82.5 151.833,82.5 151.5,82.5C 150.833,82.5 150.167,82.5 149.5,82.5C 151.219,81.9779 152.552,80.9779 153.5,79.5 Z"/></g>
<g><path style="opacity:1" fill="#cfab79" d="M 176.5,97.5 C 176.5,92.5 176.5,87.5 176.5,82.5C 175.167,81.8333 173.833,81.1667 172.5,80.5C 171.167,79.8333 169.833,79.1667 168.5,78.5C 171.361,78.6584 174.028,77.9917 176.5,76.5C 182.146,77.3646 187.813,78.0312 193.5,78.5C 193.829,84.2055 193.495,89.8722 192.5,95.5C 187.137,96.1672 181.804,96.8339 176.5,97.5 Z"/></g>
<g><path style="opacity:1" fill="#aa7d48" d="M 159.5,77.5 C 157.989,78.5025 156.322,79.1692 154.5,79.5C 154.167,79.5 153.833,79.5 153.5,79.5C 150.167,79.5 146.833,79.5 143.5,79.5C 141.691,78.7093 139.691,78.7093 137.5,79.5C 136.913,85.3027 137.58,90.8027 139.5,96C 136.518,96.498 133.518,96.6646 130.5,96.5C 130.089,89.666 130.756,82.9993 132.5,76.5C 138.84,76.348 145.173,76.0147 151.5,75.5C 154.59,75.5217 157.257,76.1883 159.5,77.5 Z"/></g>
<g><path style="opacity:1" fill="#b99960" d="M 184.5,74.5 C 189.397,73.9819 193.23,75.6486 196,79.5C 196.5,87.4931 196.666,95.4931 196.5,103.5C 194.833,103.5 193.167,103.5 191.5,103.5C 184.167,103.5 176.833,103.5 169.5,103.5C 169.5,102.5 169.5,101.5 169.5,100.5C 172.003,99.7445 174.337,98.7445 176.5,97.5C 181.804,96.8339 187.137,96.1672 192.5,95.5C 193.495,89.8722 193.829,84.2055 193.5,78.5C 187.813,78.0312 182.146,77.3646 176.5,76.5C 174.028,77.9917 171.361,78.6584 168.5,78.5C 167.167,77.8333 165.833,77.1667 164.5,76.5C 171.167,75.8333 177.833,75.1667 184.5,74.5 Z"/></g>
<g><path style="opacity:1" fill="#7e7363" d="M 184.5,74.5 C 184.5,74.1667 184.5,73.8333 184.5,73.5C 188.833,73.5 193.167,73.5 197.5,73.5C 197.999,79.4833 198.333,85.4833 198.5,91.5C 198.491,95.893 197.824,99.893 196.5,103.5C 196.666,95.4931 196.5,87.4931 196,79.5C 193.23,75.6486 189.397,73.9819 184.5,74.5 Z"/></g>
<g><path style="opacity:1" fill="#a9a5ab" d="M 184.5,73.5 C 184.5,73.1667 184.5,72.8333 184.5,72.5C 189.167,72.5 193.833,72.5 198.5,72.5C 201.905,90.4387 200.738,108.105 195,125.5C 193.365,128.483 191.532,131.149 189.5,133.5C 189.5,132.5 189.5,131.5 189.5,130.5C 190.931,129.22 191.598,127.553 191.5,125.5C 192.75,125.423 193.583,124.756 194,123.5C 195.78,118.997 196.613,114.33 196.5,109.5C 196.5,109.167 196.5,108.833 196.5,108.5C 197.434,107.432 197.768,106.099 197.5,104.5C 195.5,104.5 193.5,104.5 191.5,104.5C 191.5,104.167 191.5,103.833 191.5,103.5C 193.167,103.5 194.833,103.5 196.5,103.5C 197.824,99.893 198.491,95.893 198.5,91.5C 198.333,85.4833 197.999,79.4833 197.5,73.5C 193.167,73.5 188.833,73.5 184.5,73.5 Z"/></g>
<g><path style="opacity:1" fill="#b5a090" d="M 128.5,87.5 C 128.447,93.1956 128.78,98.8623 129.5,104.5C 128.178,101.232 127.511,97.5652 127.5,93.5C 127.667,89.8333 127.833,86.1667 128,82.5C 128.494,84.1341 128.66,85.8008 128.5,87.5 Z"/></g>
<g><path style="opacity:1" fill="#5a4b36" d="M 149.5,82.5 C 150.167,82.5 150.833,82.5 151.5,82.5C 150.398,86.7471 150.232,91.0804 151,95.5C 154.73,96.4601 158.563,96.7935 162.5,96.5C 163.167,96.5 163.833,96.5 164.5,96.5C 168.167,96.5 171.833,96.5 175.5,96.5C 175.5,92.1667 175.5,87.8333 175.5,83.5C 175.5,82.8333 175.833,82.5 176.5,82.5C 176.5,87.5 176.5,92.5 176.5,97.5C 174.337,98.7445 172.003,99.7445 169.5,100.5C 169.167,100.5 168.833,100.5 168.5,100.5C 164.833,99.1667 161.167,99.1667 157.5,100.5C 154.833,99.8333 152.167,99.1667 149.5,98.5C 149.5,93.1667 149.5,87.8333 149.5,82.5 Z"/></g>
<g><path style="opacity:1" fill="#c5c8c9" d="M 164.5,82.5 C 164.5,86.1667 164.5,89.8333 164.5,93.5C 167.237,94.2129 169.904,94.2129 172.5,93.5C 173.487,90.2317 173.82,86.8984 173.5,83.5C 174.167,83.5 174.833,83.5 175.5,83.5C 175.5,87.8333 175.5,92.1667 175.5,96.5C 171.833,96.5 168.167,96.5 164.5,96.5C 163.203,91.7331 163.203,87.0665 164.5,82.5 Z"/></g>
<g><path style="opacity:1" fill="#b6b4b4" d="M 151.5,82.5 C 151.833,82.5 152.167,82.5 152.5,82.5C 152.335,86.1817 152.501,89.8484 153,93.5C 156.047,93.9288 159.214,93.9288 162.5,93.5C 162.5,94.5 162.5,95.5 162.5,96.5C 158.563,96.7935 154.73,96.4601 151,95.5C 150.232,91.0804 150.398,86.7471 151.5,82.5 Z"/></g>
<g><path style="opacity:1" fill="#e2e3e4" d="M 152.5,82.5 C 155.833,82.5 159.167,82.5 162.5,82.5C 162.5,86.1667 162.5,89.8333 162.5,93.5C 159.214,93.9288 156.047,93.9288 153,93.5C 152.501,89.8484 152.335,86.1817 152.5,82.5 Z"/></g>
<g><path style="opacity:1" fill="#f6f7f6" d="M 164.5,82.5 C 167.713,82.19 170.713,82.5233 173.5,83.5C 173.82,86.8984 173.487,90.2317 172.5,93.5C 169.904,94.2129 167.237,94.2129 164.5,93.5C 164.5,89.8333 164.5,86.1667 164.5,82.5 Z"/></g>
<g><path style="opacity:1" fill="#2c2613" d="M 168.5,100.5 C 168.631,101.376 168.298,102.043 167.5,102.5C 164.695,102.37 162.029,102.37 159.5,102.5C 158.508,102.672 157.842,102.338 157.5,101.5C 157.5,101.167 157.5,100.833 157.5,100.5C 161.167,99.1667 164.833,99.1667 168.5,100.5 Z"/></g>
<g><path style="opacity:1" fill="#c19979" d="M 168.5,100.5 C 168.833,100.5 169.167,100.5 169.5,100.5C 169.5,101.5 169.5,102.5 169.5,103.5C 176.833,103.5 184.167,103.5 191.5,103.5C 191.5,103.833 191.5,104.167 191.5,104.5C 174.833,104.5 158.167,104.5 141.5,104.5C 148.074,103.871 154.074,103.205 159.5,102.5C 162.029,102.37 164.695,102.37 167.5,102.5C 168.298,102.043 168.631,101.376 168.5,100.5 Z"/></g>
<g><path style="opacity:1" fill="#544458" d="M 129.5,105.5 C 129.5,105.167 129.5,104.833 129.5,104.5C 130.167,104.5 130.833,104.5 131.5,104.5C 134.833,104.5 138.167,104.5 141.5,104.5C 158.167,104.5 174.833,104.5 191.5,104.5C 193.5,104.5 195.5,104.5 197.5,104.5C 197.768,106.099 197.434,107.432 196.5,108.5C 196.5,107.5 196.5,106.5 196.5,105.5C 174.167,105.5 151.833,105.5 129.5,105.5 Z"/></g>
<g><path style="opacity:1" fill="#162263" d="M 129.5,105.5 C 151.833,105.5 174.167,105.5 196.5,105.5C 196.5,106.5 196.5,107.5 196.5,108.5C 196.5,108.833 196.5,109.167 196.5,109.5C 195.596,110.209 195.263,111.209 195.5,112.5C 189.271,113.631 183.271,115.298 177.5,117.5C 172.678,115.226 167.678,113.559 162.5,112.5C 166.519,111.306 166.352,110.306 162,109.5C 160.635,109.844 159.468,110.511 158.5,111.5C 157.713,110.758 157.047,109.925 156.5,109C 168.173,108.438 179.839,107.772 191.5,107C 175.5,106.333 159.5,106.333 143.5,107C 145.246,107.471 146.913,108.138 148.5,109C 146.665,109.928 146.332,111.094 147.5,112.5C 146.311,113.429 144.978,113.762 143.5,113.5C 143.5,114.5 143.5,115.5 143.5,116.5C 148.64,114.758 153.973,113.424 159.5,112.5C 156.217,114.078 152.884,115.745 149.5,117.5C 146.813,117.664 144.146,117.497 141.5,117C 138.511,113.839 134.844,112.339 130.5,112.5C 130.552,110.097 130.219,107.764 129.5,105.5 Z"/></g>
<g><path style="opacity:1" fill="#182b81" d="M 162.5,112.5 C 161.5,112.5 160.5,112.5 159.5,112.5C 153.973,113.424 148.64,114.758 143.5,116.5C 143.5,115.5 143.5,114.5 143.5,113.5C 144.978,113.762 146.311,113.429 147.5,112.5C 146.332,111.094 146.665,109.928 148.5,109C 146.913,108.138 145.246,107.471 143.5,107C 159.5,106.333 175.5,106.333 191.5,107C 179.839,107.772 168.173,108.438 156.5,109C 157.047,109.925 157.713,110.758 158.5,111.5C 159.468,110.511 160.635,109.844 162,109.5C 166.352,110.306 166.519,111.306 162.5,112.5 Z"/></g>
<g><path style="opacity:1" fill="#686973" d="M 196.5,109.5 C 196.613,114.33 195.78,118.997 194,123.5C 193.583,124.756 192.75,125.423 191.5,125.5C 191.737,124.209 191.404,123.209 190.5,122.5C 192.078,120.682 191.578,119.682 189,119.5C 184.995,119.008 181.162,118.341 177.5,117.5C 183.271,115.298 189.271,113.631 195.5,112.5C 195.263,111.209 195.596,110.209 196.5,109.5 Z"/></g>
<g><path style="opacity:1" fill="#919599" d="M 159.5,112.5 C 160.5,112.5 161.5,112.5 162.5,112.5C 167.678,113.559 172.678,115.226 177.5,117.5C 181.162,118.341 184.995,119.008 189,119.5C 191.578,119.682 192.078,120.682 190.5,122.5C 186.923,123.786 183.256,124.786 179.5,125.5C 177.142,125.247 174.808,124.914 172.5,124.5C 169.397,122.616 166.064,121.283 162.5,120.5C 160.223,121.478 157.89,122.145 155.5,122.5C 152.715,123.306 149.881,123.972 147,124.5C 143.86,124.017 141.36,122.517 139.5,120C 137.1,119.814 134.766,119.314 132.5,118.5C 131.146,116.538 131.813,115.538 134.5,115.5C 136.854,115.511 138.854,116.344 140.5,118C 143.696,118.805 146.696,118.638 149.5,117.5C 152.884,115.745 156.217,114.078 159.5,112.5 Z"/></g>
<g><path style="opacity:1" fill="#141a43" d="M 141.5,125.5 C 140.025,127.007 138.691,128.673 137.5,130.5C 135.994,128.025 134.661,125.358 133.5,122.5C 136.437,122.282 139.104,123.282 141.5,125.5 Z"/></g>
<g><path style="opacity:1" fill="#1f358d" d="M 172.5,124.5 C 172.918,125.222 173.584,125.722 174.5,126C 169.492,126.869 169.825,127.536 175.5,128C 170.146,129.638 164.813,130.804 159.5,131.5C 158.432,132.434 157.099,132.768 155.5,132.5C 151.67,134 147.67,134.667 143.5,134.5C 143.5,133.5 143.5,132.5 143.5,131.5C 145.833,131.5 148.167,131.5 150.5,131.5C 150.5,130.5 150.5,129.5 150.5,128.5C 153.572,128.817 156.572,128.484 159.5,127.5C 157.833,126.833 156.167,126.167 154.5,125.5C 154.863,124.817 155.196,124.15 155.5,123.5C 155.5,123.167 155.5,122.833 155.5,122.5C 157.89,122.145 160.223,121.478 162.5,120.5C 166.064,121.283 169.397,122.616 172.5,124.5 Z"/></g>
<g><path style="opacity:1" fill="#19286b" d="M 155.5,123.5 C 155.196,124.15 154.863,124.817 154.5,125.5C 156.167,126.167 157.833,126.833 159.5,127.5C 156.572,128.484 153.572,128.817 150.5,128.5C 150.5,129.5 150.5,130.5 150.5,131.5C 148.167,131.5 145.833,131.5 143.5,131.5C 143.5,132.5 143.5,133.5 143.5,134.5C 147.67,134.667 151.67,134 155.5,132.5C 154.035,133.737 152.368,134.737 150.5,135.5C 146.227,135.919 142.227,135.252 138.5,133.5C 137.89,132.609 137.557,131.609 137.5,130.5C 138.691,128.673 140.025,127.007 141.5,125.5C 146.362,125.882 151.028,125.216 155.5,123.5 Z"/></g>
<g><path style="opacity:1" fill="#1c2969" d="M 190.5,122.5 C 191.404,123.209 191.737,124.209 191.5,125.5C 191.598,127.553 190.931,129.22 189.5,130.5C 187.552,133.472 184.886,135.472 181.5,136.5C 177.353,136.874 173.686,135.874 170.5,133.5C 167.111,131.78 163.444,131.113 159.5,131.5C 164.813,130.804 170.146,129.638 175.5,128C 169.825,127.536 169.492,126.869 174.5,126C 173.584,125.722 172.918,125.222 172.5,124.5C 174.808,124.914 177.142,125.247 179.5,125.5C 183.256,124.786 186.923,123.786 190.5,122.5 Z"/></g>
<g><path style="opacity:1" fill="#2e376d" d="M 202.5,135.5 C 202.5,134.167 202.5,132.833 202.5,131.5C 204.371,131.141 205.871,130.141 207,128.5C 207.764,132.244 206.264,134.577 202.5,135.5 Z"/></g>
<g><path style="opacity:1" fill="#3d4376" d="M 128.5,130.5 C 126.284,130.275 124.617,131.108 123.5,133C 124.38,134.356 124.714,135.856 124.5,137.5C 125.5,137.5 126.5,137.5 127.5,137.5C 127.512,140.142 126.179,141.475 123.5,141.5C 123.799,139.396 123.466,137.396 122.5,135.5C 119.458,133.42 118.124,130.753 118.5,127.5C 119.5,129.167 120.833,130.5 122.5,131.5C 123.123,129.034 123.957,126.701 125,124.5C 125.007,127.31 126.174,129.31 128.5,130.5 Z"/></g>
<g><path style="opacity:1" fill="#243077" d="M 202.5,131.5 C 202.5,132.833 202.5,134.167 202.5,135.5C 202.5,135.833 202.5,136.167 202.5,136.5C 200.533,137.632 198.7,137.299 197,135.5C 196.184,136.823 195.017,137.489 193.5,137.5C 192.402,136.399 192.235,135.066 193,133.5C 196.829,131.845 199.663,129.178 201.5,125.5C 202.466,127.396 202.799,129.396 202.5,131.5 Z"/></g>
<g><path style="opacity:1" fill="#7b87c6" d="M 202.5,136.5 C 204.076,139.215 203.742,141.548 201.5,143.5C 202.092,139.926 200.592,137.926 197,137.5C 196.148,138.571 195.315,139.571 194.5,140.5C 194.443,139.391 194.11,138.391 193.5,137.5C 195.017,137.489 196.184,136.823 197,135.5C 198.7,137.299 200.533,137.632 202.5,136.5 Z"/></g>
<g><path style="opacity:1" fill="#84858a" d="M 127.5,72.5 C 131.5,72.5 135.5,72.5 139.5,72.5C 136.713,73.4767 133.713,73.81 130.5,73.5C 130.008,78.3236 129.341,82.9903 128.5,87.5C 128.66,85.8008 128.494,84.1341 128,82.5C 127.833,86.1667 127.667,89.8333 127.5,93.5C 127.511,97.5652 128.178,101.232 129.5,104.5C 129.5,104.833 129.5,105.167 129.5,105.5C 130.219,107.764 130.552,110.097 130.5,112.5C 134.844,112.339 138.511,113.839 141.5,117C 144.146,117.497 146.813,117.664 149.5,117.5C 146.696,118.638 143.696,118.805 140.5,118C 138.854,116.344 136.854,115.511 134.5,115.5C 131.813,115.538 131.146,116.538 132.5,118.5C 134.766,119.314 137.1,119.814 139.5,120C 141.36,122.517 143.86,124.017 147,124.5C 149.881,123.972 152.715,123.306 155.5,122.5C 155.5,122.833 155.5,123.167 155.5,123.5C 151.028,125.216 146.362,125.882 141.5,125.5C 139.104,123.282 136.437,122.282 133.5,122.5C 134.661,125.358 135.994,128.025 137.5,130.5C 137.557,131.609 137.89,132.609 138.5,133.5C 137.535,134.721 137.702,136.054 139,137.5C 141.264,139.966 143.264,142.633 145,145.5C 146.049,143.893 147.549,143.227 149.5,143.5C 148.602,144.158 147.602,144.824 146.5,145.5C 146.667,145.833 146.833,146.167 147,146.5C 152.069,151.405 157.569,155.738 163.5,159.5C 167.165,157.159 170.499,154.493 173.5,151.5C 175.471,149.192 177.471,146.858 179.5,144.5C 177.325,142.426 174.658,141.093 171.5,140.5C 175.221,138.403 179.221,137.236 183.5,137C 182.906,136.536 182.239,136.369 181.5,136.5C 184.886,135.472 187.552,133.472 189.5,130.5C 189.5,131.5 189.5,132.5 189.5,133.5C 188.908,136.691 187.741,139.691 186,142.5C 182.138,146.693 178.305,150.859 174.5,155C 171.833,157 169.167,159 166.5,161C 164.956,162.187 163.289,162.52 161.5,162C 146.163,152.322 135.663,138.822 130,121.5C 125.263,105.34 124.43,89.0067 127.5,72.5 Z"/></g>
<g><path style="opacity:1" fill="#949497" d="M 159.5,131.5 C 163.444,131.113 167.111,131.78 170.5,133.5C 173.686,135.874 177.353,136.874 181.5,136.5C 182.239,136.369 182.906,136.536 183.5,137C 179.221,137.236 175.221,138.403 171.5,140.5C 174.658,141.093 177.325,142.426 179.5,144.5C 173.7,143.385 168.033,141.718 162.5,139.5C 159.13,140.837 155.797,142.171 152.5,143.5C 151.5,143.5 150.5,143.5 149.5,143.5C 147.549,143.227 146.049,143.893 145,145.5C 143.264,142.633 141.264,139.966 139,137.5C 137.702,136.054 137.535,134.721 138.5,133.5C 139.431,135.022 140.598,136.355 142,137.5C 144.996,136.965 147.829,136.298 150.5,135.5C 152.368,134.737 154.035,133.737 155.5,132.5C 157.099,132.768 158.432,132.434 159.5,131.5 Z"/></g>
<g><path style="opacity:1" fill="#555971" d="M 138.5,133.5 C 142.227,135.252 146.227,135.919 150.5,135.5C 147.829,136.298 144.996,136.965 142,137.5C 140.598,136.355 139.431,135.022 138.5,133.5 Z"/></g>
<g><path style="opacity:1" fill="#1d2887" d="M 170.5,133.5 C 170.791,132.351 171.624,131.684 173,131.5C 175.792,130.784 178.626,130.451 181.5,130.5C 181.67,131.822 181.337,132.989 180.5,134C 177.151,134.388 173.817,134.221 170.5,133.5 Z"/></g>
<g><path style="opacity:1" fill="#152468" d="M 179.5,144.5 C 177.471,146.858 175.471,149.192 173.5,151.5C 170.753,151.187 168.086,151.52 165.5,152.5C 164.829,153.946 163.662,154.612 162,154.5C 158.724,152.561 155.724,150.228 153,147.5C 152.51,146.207 152.343,144.873 152.5,143.5C 155.797,142.171 159.13,140.837 162.5,139.5C 168.033,141.718 173.7,143.385 179.5,144.5 Z"/></g>
<g><path style="opacity:1" fill="#141b4a" d="M 149.5,143.5 C 150.5,143.5 151.5,143.5 152.5,143.5C 152.343,144.873 152.51,146.207 153,147.5C 155.724,150.228 158.724,152.561 162,154.5C 163.662,154.612 164.829,153.946 165.5,152.5C 168.086,151.52 170.753,151.187 173.5,151.5C 170.499,154.493 167.165,157.159 163.5,159.5C 157.569,155.738 152.069,151.405 147,146.5C 146.833,146.167 146.667,145.833 146.5,145.5C 147.602,144.824 148.602,144.158 149.5,143.5 Z"/></g>
<g><path style="opacity:1" fill="#343c8c" d="M 128.5,130.5 C 130.878,131.692 132.878,133.359 134.5,135.5C 133.482,136.852 132.149,137.852 130.5,138.5C 136.351,149.02 144.017,158.02 153.5,165.5C 152.396,167.389 151.063,169.055 149.5,170.5C 138.334,163.005 129.667,153.338 123.5,141.5C 126.179,141.475 127.512,140.142 127.5,137.5C 126.5,137.5 125.5,137.5 124.5,137.5C 124.714,135.856 124.38,134.356 123.5,133C 124.617,131.108 126.284,130.275 128.5,130.5 Z"/></g>
<g><path style="opacity:1" fill="#7683c6" d="M 134.5,151.5 C 137.108,153.103 139.441,155.103 141.5,157.5C 140.542,157.953 139.708,158.619 139,159.5C 137.553,157.597 135.886,155.93 134,154.5C 133.53,153.423 133.697,152.423 134.5,151.5 Z"/></g>
<g><path style="opacity:1" fill="#707ab6" d="M 134.5,151.5 C 132.83,151.249 131.33,150.582 130,149.5C 128.882,147.235 128.049,144.901 127.5,142.5C 128.5,142.5 129.5,142.5 130.5,142.5C 132.58,145.036 133.913,148.036 134.5,151.5 Z"/></g>
<g><path style="opacity:1" fill="#354090" d="M 201.5,143.5 C 198.901,148.428 195.568,152.761 191.5,156.5C 191.5,154.833 191.5,153.167 191.5,151.5C 188.812,153.132 186.312,155.132 184,157.5C 183.536,156.906 183.369,156.239 183.5,155.5C 187.553,150.781 191.22,145.781 194.5,140.5C 195.315,139.571 196.148,138.571 197,137.5C 200.592,137.926 202.092,139.926 201.5,143.5 Z"/></g>
<g><path style="opacity:1" fill="#8493cd" d="M 191.5,151.5 C 191.954,148.86 193.121,146.527 195,144.5C 196.897,148.152 195.731,150.485 191.5,151.5 Z"/></g>
<g><path style="opacity:1" fill="#5b65aa" d="M 191.5,151.5 C 191.5,153.167 191.5,154.833 191.5,156.5C 191.262,158.404 190.262,159.738 188.5,160.5C 188.265,159.903 187.765,159.57 187,159.5C 185.826,160.544 184.659,161.544 183.5,162.5C 183.414,161.504 183.748,160.671 184.5,160C 183.184,159.472 182.517,159.972 182.5,161.5C 181.833,160.5 181.167,159.5 180.5,158.5C 181.167,157.167 182.167,156.167 183.5,155.5C 183.369,156.239 183.536,156.906 184,157.5C 186.312,155.132 188.812,153.132 191.5,151.5 Z"/></g>
<g><path style="opacity:1" fill="#6e7fbd" d="M 141.5,157.5 C 143.01,158.836 144.677,160.003 146.5,161C 145.748,161.671 145.414,162.504 145.5,163.5C 144.069,163.119 143.236,162.119 143,160.5C 142.667,160.833 142.333,161.167 142,161.5C 141.51,160.207 141.343,158.873 141.5,157.5 Z"/></g>
<g><path style="opacity:1" fill="#8392cf" d="M 145.5,163.5 C 146.5,163.5 147.5,163.5 148.5,163.5C 147.754,167.31 146.754,167.31 145.5,163.5 Z"/></g>
<g><path style="opacity:1" fill="#3f4683" d="M 175.5,162.5 C 174.969,165.888 176.303,167.888 179.5,168.5C 178.833,169.167 178.167,169.833 177.5,170.5C 175.57,170.229 174.236,169.229 173.5,167.5C 171.83,164.837 172.497,163.17 175.5,162.5 Z"/></g>
<g><path style="opacity:1" fill="#394295" d="M 180.5,158.5 C 181.167,159.5 181.833,160.5 182.5,161.5C 182.5,162.167 182.833,162.5 183.5,162.5C 184.659,161.544 185.826,160.544 187,159.5C 187.765,159.57 188.265,159.903 188.5,160.5C 186.105,163.861 183.105,166.528 179.5,168.5C 176.303,167.888 174.969,165.888 175.5,162.5C 176.945,160.937 178.611,159.604 180.5,158.5 Z"/></g>
<g><path style="opacity:1" fill="#b7c7f0" d="M 183.5,162.5 C 182.833,162.5 182.5,162.167 182.5,161.5C 182.517,159.972 183.184,159.472 184.5,160C 183.748,160.671 183.414,161.504 183.5,162.5 Z"/></g>
<g><path style="opacity:1" fill="#909fea" d="M 172.5,168.5 C 172.5,167.833 172.833,167.5 173.5,167.5C 174.236,169.229 175.57,170.229 177.5,170.5C 177.5,170.833 177.5,171.167 177.5,171.5C 176.883,171.611 176.383,171.944 176,172.5C 174.595,171.269 173.429,169.936 172.5,168.5 Z"/></g>
<g><path style="opacity:1" fill="#2a3275" d="M 172.5,168.5 C 173.429,169.936 174.595,171.269 176,172.5C 176.383,171.944 176.883,171.611 177.5,171.5C 178.935,173.665 178.269,175.165 175.5,176C 166.024,179.68 156.858,179.18 148,174.5C 147.517,173.552 147.351,172.552 147.5,171.5C 150.278,171.978 152.278,170.978 153.5,168.5C 159.822,171.047 166.156,171.047 172.5,168.5 Z"/></g>
<g><path style="opacity:1" fill="#8087d8" d="M 163.5,173.5 C 167.839,171.771 168.505,172.771 165.5,176.5C 164.824,175.398 164.158,174.398 163.5,173.5 Z"/></g>
<g><path style="opacity:1" fill="#6d7cb3" d="M 158.5,172.5 C 159.833,172.5 161.167,172.5 162.5,172.5C 162.5,173.833 162.5,175.167 162.5,176.5C 161.167,176.5 159.833,176.5 158.5,176.5C 158.5,175.167 158.5,173.833 158.5,172.5 Z"/></g>
<g><path style="opacity:1" fill="#f6f9f9" d="M 61.5,219.5 C 62.5,220.833 63.5,220.833 64.5,219.5C 64.5,213.5 64.5,207.5 64.5,201.5C 63.1667,201.5 61.8333,201.5 60.5,201.5C 61.3201,199.86 62.1534,198.193 63,196.5C 66.3081,198.4 67.1415,201.067 65.5,204.5C 66,205.5 66.5,206.5 67,207.5C 67.2511,205.567 67.7511,203.734 68.5,202C 67.3463,201.086 67.513,200.253 69,199.5C 69.5613,200.022 70.228,200.355 71,200.5C 73.0988,198.172 75.2655,198.006 77.5,200C 77.1667,200.333 76.8333,200.667 76.5,201C 77.448,201.483 78.448,201.649 79.5,201.5C 79.699,214.637 80.3656,214.637 81.5,201.5C 83.398,200.904 85.0646,200.904 86.5,201.5C 84.5988,206.33 82.9322,211.33 81.5,216.5C 82.1667,215.833 82.8333,215.167 83.5,214.5C 84.4584,214.953 85.2917,215.619 86,216.5C 86.7485,214.668 87.7485,213.001 89,211.5C 87.7011,205.77 89.8678,201.77 95.5,199.5C 97.0255,199.994 98.3588,200.661 99.5,201.5C 97.8333,201.5 96.1667,201.5 94.5,201.5C 94.5,207.5 94.5,213.5 94.5,219.5C 93.9569,219.56 93.6236,219.893 93.5,220.5C 97.9838,221.811 102.317,221.811 106.5,220.5C 103.5,219.833 100.5,219.167 97.5,218.5C 97.5,216.167 97.5,213.833 97.5,211.5C 99.7925,211.244 101.959,211.577 104,212.5C 104.483,211.552 104.649,210.552 104.5,209.5C 102.167,209.5 99.8333,209.5 97.5,209.5C 97.5,207.5 97.5,205.5 97.5,203.5C 100.448,203.223 103.281,203.556 106,204.5C 106.483,203.552 106.649,202.552 106.5,201.5C 110.88,198.846 115.213,198.846 119.5,201.5C 116.813,201.336 114.146,201.503 111.5,202C 113.425,207.536 114.092,213.369 113.5,219.5C 110.848,220.294 111.015,220.96 114,221.5C 115.404,221.491 116.57,220.991 117.5,220C 116.577,217.959 116.244,215.792 116.5,213.5C 117.5,213.5 118.5,213.5 119.5,213.5C 121.114,215.456 122.781,217.456 124.5,219.5C 125.723,220.614 127.056,220.781 128.5,220C 126.039,217.703 123.706,215.203 121.5,212.5C 124.087,208.731 124.087,205.064 121.5,201.5C 123.274,200.119 124.774,200.452 126,202.5C 126.189,206.17 127.023,209.67 128.5,213C 128.355,213.772 128.022,214.439 127.5,215C 129.254,216.936 130.921,218.77 132.5,220.5C 136.152,222.285 139.152,221.618 141.5,218.5C 142.793,216.636 142.793,214.636 141.5,212.5C 138.749,210.753 136.749,208.42 135.5,205.5C 135.608,204.558 135.941,203.725 136.5,203C 138.066,202.235 139.399,202.402 140.5,203.5C 140.821,205.048 141.821,205.715 143.5,205.5C 143.338,203.473 143.505,201.473 144,199.5C 145.368,200.993 145.535,202.493 144.5,204C 146.35,206.033 147.016,206.033 146.5,204C 148.883,203.935 149.55,203.102 148.5,201.5C 149.257,200.227 149.923,200.227 150.5,201.5C 150.5,207.5 150.5,213.5 150.5,219.5C 151.5,220.833 152.5,220.833 153.5,219.5C 153.823,213.31 153.49,207.31 152.5,201.5C 153.641,200.661 154.974,199.994 156.5,199.5C 157.425,200.641 158.259,200.641 159,199.5C 159.464,200.094 159.631,200.761 159.5,201.5C 159.351,202.552 159.517,203.552 160,204.5C 162.041,203.577 164.208,203.244 166.5,203.5C 166.5,204.833 166.5,206.167 166.5,207.5C 166.5,211.833 166.5,216.167 166.5,220.5C 167.791,220.737 168.791,220.404 169.5,219.5C 169.5,214.167 169.5,208.833 169.5,203.5C 172.082,203.975 174.082,203.308 175.5,201.5C 178.664,209.607 179.664,209.274 178.5,200.5C 181.731,199.222 184.564,199.222 187,200.5C 186.89,202.889 186.723,205.222 186.5,207.5C 184.654,205.97 183.654,203.97 183.5,201.5C 182.127,201.343 180.793,201.51 179.5,202C 185.41,206.766 187.744,212.932 186.5,220.5C 187.791,220.737 188.791,220.404 189.5,219.5C 190.302,218.048 190.802,216.382 191,214.5C 193.832,218.621 193.999,222.788 191.5,227C 193.669,230.507 194.836,234.34 195,238.5C 195.941,240.061 197.108,241.395 198.5,242.5C 199.321,239.553 199.821,236.553 200,233.5C 201.506,231.935 203.006,231.601 204.5,232.5C 202.771,233.236 201.771,234.57 201.5,236.5C 200.402,237.601 200.235,238.934 201,240.5C 204.387,243.553 208.053,246.22 212,248.5C 212.678,250.598 212.511,252.598 211.5,254.5C 208.813,254.664 206.146,254.497 203.5,254C 202.809,252.933 202.309,251.766 202,250.5C 201.137,252.749 201.637,254.582 203.5,256C 206.221,256.602 208.887,256.435 211.5,255.5C 211.389,256.117 211.056,256.617 210.5,257C 207.812,257.392 205.145,257.892 202.5,258.5C 200.157,257.342 197.823,256.342 195.5,255.5C 196.239,255.631 196.906,255.464 197.5,255C 194.593,251.605 191.927,248.105 189.5,244.5C 192.538,242.749 193.705,240.083 193,236.5C 191.871,234.859 190.371,233.859 188.5,233.5C 185.36,232.359 182.027,232.192 178.5,233C 179.044,233.717 179.711,234.217 180.5,234.5C 180.5,241.5 180.5,248.5 180.5,255.5C 182.179,255.715 183.179,255.048 183.5,253.5C 183.5,251.167 183.5,248.833 183.5,246.5C 184.833,246.5 186.167,246.5 187.5,246.5C 189.115,249.45 191.115,252.116 193.5,254.5C 191.621,255.341 189.621,255.675 187.5,255.5C 187.808,253.076 187.474,250.743 186.5,248.5C 185.52,251.086 185.187,253.753 185.5,256.5C 183.076,256.808 180.743,256.474 178.5,255.5C 179.59,254.391 179.59,253.391 178.5,252.5C 177.614,253.325 177.281,254.325 177.5,255.5C 175.784,255.629 174.117,255.962 172.5,256.5C 173.412,255.262 173.579,253.928 173,252.5C 169.851,254.362 166.351,255.029 162.5,254.5C 161.521,251.375 161.187,248.042 161.5,244.5C 164.685,244.02 167.519,244.686 170,246.5C 170.765,244.934 170.598,243.601 169.5,242.5C 167.167,242.5 164.833,242.5 162.5,242.5C 162.5,239.833 162.5,237.167 162.5,234.5C 165.777,234.216 168.943,234.549 172,235.5C 172.464,234.906 172.631,234.239 172.5,233.5C 167.32,232.185 161.986,232.185 156.5,233.5C 156.957,234.298 157.624,234.631 158.5,234.5C 158.5,235.167 158.5,235.833 158.5,236.5C 156.549,236.227 155.049,236.893 154,238.5C 153.722,237.584 153.222,236.918 152.5,236.5C 152.5,235.167 152.5,233.833 152.5,232.5C 145.833,232.5 139.167,232.5 132.5,232.5C 132.343,233.873 132.51,235.207 133,236.5C 133.717,235.956 134.217,235.289 134.5,234.5C 136.833,234.5 139.167,234.5 141.5,234.5C 141.5,237.5 141.5,240.5 141.5,243.5C 141.815,247.371 141.482,251.038 140.5,254.5C 140.5,249.5 140.5,244.5 140.5,239.5C 139.5,239.5 138.5,239.5 137.5,239.5C 136.842,246.035 136.342,252.368 136,258.5C 134.387,259.622 133.22,259.122 132.5,257C 130.618,256.802 128.952,256.302 127.5,255.5C 128.978,255.762 130.311,255.429 131.5,254.5C 128.81,247.256 125.644,240.256 122,233.5C 118.632,240.243 115.798,247.243 113.5,254.5C 114.614,255.776 115.614,255.776 116.5,254.5C 117.043,254.56 117.376,254.893 117.5,255.5C 115.726,256.187 114.059,257.02 112.5,258C 113.5,258.333 114.5,258.667 115.5,259C 114.056,259.781 112.723,259.614 111.5,258.5C 110.965,256.339 110.132,254.339 109,252.5C 108.667,253.5 108.333,254.5 108,255.5C 107.623,254.058 106.79,253.058 105.5,252.5C 107.694,246.586 109.694,240.586 111.5,234.5C 110.641,233.226 109.974,233.392 109.5,235C 108.05,240.023 106.216,244.856 104,249.5C 102.105,244.045 99.938,238.711 97.5,233.5C 95.9137,235.173 95.2471,237.173 95.5,239.5C 93.4152,241.684 92.4152,244.351 92.5,247.5C 91.7281,248.694 90.7281,249.694 89.5,250.5C 88.9149,245.745 87.9149,241.078 86.5,236.5C 86.33,235.178 86.6634,234.011 87.5,233C 84.8333,232.333 82.1667,232.333 79.5,233C 80.5266,233.513 81.5266,234.013 82.5,234.5C 83.7903,237.642 84.7903,240.975 85.5,244.5C 84.0652,243.21 83.0652,241.544 82.5,239.5C 80.9309,240.714 80.0976,242.381 80,244.5C 80.3492,240.541 78.6826,237.874 75,236.5C 74.3076,237.025 73.8076,237.692 73.5,238.5C 74.4435,243.1 74.7768,247.767 74.5,252.5C 73.325,252.719 72.325,252.386 71.5,251.5C 71.5094,248.989 71.8427,246.322 72.5,243.5C 72.4146,241.667 71.7479,240.334 70.5,239.5C 70.5,237.833 70.5,236.167 70.5,234.5C 72.7925,234.244 74.9592,234.577 77,235.5C 77.4828,234.552 77.6495,233.552 77.5,232.5C 71.1667,232.5 64.8333,232.5 58.5,232.5C 58.5,233.5 58.5,234.5 58.5,235.5C 57.5655,236.568 57.2322,237.901 57.5,239.5C 56.5,239.5 55.5,239.5 54.5,239.5C 54.2924,237.08 54.6258,234.747 55.5,232.5C 54.5097,229.56 52.5097,227.727 49.5,227C 50.3366,225.989 50.67,224.822 50.5,223.5C 45.4211,222.832 44.4211,220.498 47.5,216.5C 49.4305,216.771 50.7638,217.771 51.5,219.5C 51.56,220.043 51.8933,220.376 52.5,220.5C 53.1853,214.279 53.8519,208.112 54.5,202C 52.8659,201.506 51.1992,201.34 49.5,201.5C 50.8691,200.032 52.0357,198.365 53,196.5C 55.3317,199.822 56.4984,203.489 56.5,207.5C 57.5,207.5 58.5,207.5 59.5,207.5C 59.4453,211.523 60.112,215.523 61.5,219.5 Z"/></g>
<g><path style="opacity:1" fill="#5f6a8c" d="M 159.5,201.5 C 164.833,201.5 170.167,201.5 175.5,201.5C 174.082,203.308 172.082,203.975 169.5,203.5C 169.5,208.833 169.5,214.167 169.5,219.5C 169.131,215.232 168.131,211.232 166.5,207.5C 166.5,206.167 166.5,204.833 166.5,203.5C 164.208,203.244 162.041,203.577 160,204.5C 159.517,203.552 159.351,202.552 159.5,201.5 Z"/></g>
<g><path style="opacity:1" fill="#404764" d="M 235.5,207.5 C 234.833,207.5 234.167,207.5 233.5,207.5C 233.859,205.234 233.192,203.401 231.5,202C 235.211,201.175 238.878,201.341 242.5,202.5C 240.345,202.838 238.011,202.838 235.5,202.5C 235.5,204.167 235.5,205.833 235.5,207.5 Z"/></g>
<g><path style="opacity:1" fill="#454c72" d="M 268.5,203.5 C 267.081,202.549 265.415,202.216 263.5,202.5C 263.178,208.358 263.511,214.025 264.5,219.5C 263.791,220.404 262.791,220.737 261.5,220.5C 261.5,214.833 261.5,209.167 261.5,203.5C 259.208,203.244 257.041,203.577 255,204.5C 254.517,203.552 254.351,202.552 254.5,201.5C 259.875,201.172 265.208,201.505 270.5,202.5C 270.043,203.298 269.376,203.631 268.5,203.5 Z"/></g>
<g><path style="opacity:1" fill="#3a4866" d="M 81.5,216.5 C 81.2914,217.922 80.7914,219.255 80,220.5C 77.356,214.973 74.856,209.306 72.5,203.5C 71.5,203 70.5,202.5 69.5,202C 71.4727,201.505 73.4727,201.338 75.5,201.5C 76.3718,207.15 78.3718,212.15 81.5,216.5 Z"/></g>
<g><path style="opacity:1" fill="#484869" d="M 86.5,201.5 C 87.2389,201.369 87.9056,201.536 88.5,202C 86.4143,206.004 84.7477,210.171 83.5,214.5C 82.8333,215.167 82.1667,215.833 81.5,216.5C 82.9322,211.33 84.5988,206.33 86.5,201.5 Z"/></g>
<g><path style="opacity:1" fill="#171a4c" d="M 153.5,219.5 C 152.5,220.833 151.5,220.833 150.5,219.5C 151.327,214.015 151.827,208.348 152,202.5C 152.173,208.348 152.673,214.015 153.5,219.5 Z"/></g>
<g><path style="opacity:1" fill="#283b74" d="M 166.5,207.5 C 168.131,211.232 169.131,215.232 169.5,219.5C 168.791,220.404 167.791,220.737 166.5,220.5C 166.5,216.167 166.5,211.833 166.5,207.5 Z"/></g>
<g><path style="opacity:1" fill="#434a6f" d="M 186.5,207.5 C 186.908,208.643 187.575,209.643 188.5,210.5C 190.653,207.86 191.987,204.86 192.5,201.5C 193.873,201.343 195.207,201.51 196.5,202C 191.249,206.669 188.915,212.502 189.5,219.5C 188.791,220.404 187.791,220.737 186.5,220.5C 187.744,212.932 185.41,206.766 179.5,202C 180.793,201.51 182.127,201.343 183.5,201.5C 183.654,203.97 184.654,205.97 186.5,207.5 Z"/></g>
<g><path style="opacity:1" fill="#949aba" d="M 27.5,201.5 C 27.8195,206.363 27.4861,211.03 26.5,215.5C 26.8,210.901 26.4667,206.401 25.5,202C 26.0944,201.536 26.7611,201.369 27.5,201.5 Z"/></g>
<g><path style="opacity:1" fill="#313f59" d="M 140.5,203.5 C 139.399,202.402 138.066,202.235 136.5,203C 135.941,203.725 135.608,204.558 135.5,205.5C 136.749,208.42 138.749,210.753 141.5,212.5C 142.793,214.636 142.793,216.636 141.5,218.5C 141.167,218.5 140.833,218.5 140.5,218.5C 140.203,214.674 138.37,211.674 135,209.5C 132.585,202.738 135.085,200.072 142.5,201.5C 142.869,203.993 142.203,204.66 140.5,203.5 Z"/></g>
<g><path style="opacity:1" fill="#242e60" d="M 304.5,218.5 C 306.817,219.942 308.984,219.608 311,217.5C 311.483,218.448 311.649,219.448 311.5,220.5C 307.958,220.813 304.625,220.479 301.5,219.5C 302.327,214.015 302.827,208.348 303,202.5C 303.173,208.016 303.673,213.349 304.5,218.5 Z"/></g>
<g><path style="opacity:1" fill="#393e69" d="M 119.5,201.5 C 120.167,201.5 120.833,201.5 121.5,201.5C 124.087,205.064 124.087,208.731 121.5,212.5C 123.706,215.203 126.039,217.703 128.5,220C 127.056,220.781 125.723,220.614 124.5,219.5C 122.781,217.456 121.114,215.456 119.5,213.5C 118.432,212.566 117.099,212.232 115.5,212.5C 115.813,215.247 115.48,217.914 114.5,220.5C 113.893,220.376 113.56,220.043 113.5,219.5C 114.092,213.369 113.425,207.536 111.5,202C 114.146,201.503 116.813,201.336 119.5,201.5 Z"/></g>
<g><path style="opacity:1" fill="#e4edf6" d="M 115.5,202.5 C 121.263,202.783 122.93,205.616 120.5,211C 118.866,211.494 117.199,211.66 115.5,211.5C 115.5,208.5 115.5,205.5 115.5,202.5 Z"/></g>
<g><path style="opacity:1" fill="#212e66" d="M 233.5,207.5 C 234.167,207.5 234.833,207.5 235.5,207.5C 235.5,208.167 235.5,208.833 235.5,209.5C 235.5,210.167 235.5,210.833 235.5,211.5C 235.5,214.5 235.5,217.5 235.5,220.5C 234.448,220.649 233.448,220.483 232.5,220C 233.464,215.934 233.797,211.767 233.5,207.5 Z"/></g>
<g><path style="opacity:1" fill="#6f7182" d="M 235.5,209.5 C 237.5,209.5 239.5,209.5 241.5,209.5C 241.649,210.552 241.483,211.552 241,212.5C 239.301,211.594 237.467,211.261 235.5,211.5C 235.5,210.833 235.5,210.167 235.5,209.5 Z"/></g>
<g><path style="opacity:1" fill="#2c3761" d="M 278.5,201.5 C 279.239,201.369 279.906,201.536 280.5,202C 279.565,204.381 279.232,206.881 279.5,209.5C 283.167,209.5 286.833,209.5 290.5,209.5C 290.958,206.606 290.291,204.106 288.5,202C 290.5,201.333 292.5,201.333 294.5,202C 293.224,204.724 292.558,207.724 292.5,211C 292.522,214.086 292.855,217.086 293.5,220C 291.934,220.765 290.601,220.598 289.5,219.5C 290.477,216.713 290.81,213.713 290.5,210.5C 286.833,210.5 283.167,210.5 279.5,210.5C 279.82,213.898 279.487,217.232 278.5,220.5C 277.183,214.012 277.183,207.678 278.5,201.5 Z"/></g>
<g><path style="opacity:1" fill="#616d95" d="M 16.5,216.5 C 15.6745,212.018 15.1745,207.351 15,202.5C 14.501,206.821 14.3343,211.154 14.5,215.5C 13.8087,211.101 13.142,206.601 12.5,202C 13.7932,201.51 15.1266,201.343 16.5,201.5C 16.5,206.5 16.5,211.5 16.5,216.5 Z"/></g>
<g><path style="opacity:1" fill="#acb0d6" d="M 28.5,201.5 C 29.2389,201.369 29.9056,201.536 30.5,202C 29.858,206.601 29.1913,211.101 28.5,215.5C 28.5,210.833 28.5,206.167 28.5,201.5 Z"/></g>
<g><path style="opacity:1" fill="#2d3660" d="M 38.5,203.5 C 42.8604,207.194 46.8604,211.194 50.5,215.5C 51.1408,216.482 51.8075,217.482 52.5,218.5C 52.3764,219.107 52.0431,219.44 51.5,219.5C 50.7638,217.771 49.4305,216.771 47.5,216.5C 45.2133,212.878 42.5466,209.545 39.5,206.5C 38.9094,205.849 38.2427,205.182 37.5,204.5C 37.6236,203.893 37.9569,203.56 38.5,203.5 Z"/></g>
<g><path style="opacity:1" fill="#4f5980" d="M 38.5,203.5 C 37.9569,203.56 37.6236,203.893 37.5,204.5C 38.2427,205.182 38.9094,205.849 39.5,206.5C 38.1771,210.9 38.1771,215.4 39.5,220C 38.552,220.483 37.552,220.649 36.5,220.5C 36.1703,214.132 36.5037,207.798 37.5,201.5C 38.2975,201.957 38.6309,202.624 38.5,203.5 Z"/></g>
<g><path style="opacity:1" fill="#6d7495" d="M 99.5,201.5 C 101.833,201.5 104.167,201.5 106.5,201.5C 106.649,202.552 106.483,203.552 106,204.5C 103.281,203.556 100.448,203.223 97.5,203.5C 97.5,205.5 97.5,207.5 97.5,209.5C 99.8333,209.5 102.167,209.5 104.5,209.5C 104.649,210.552 104.483,211.552 104,212.5C 101.959,211.577 99.7925,211.244 97.5,211.5C 97.5,213.833 97.5,216.167 97.5,218.5C 96.6733,213.349 96.1733,208.016 96,202.5C 95.5005,208.491 95.3338,214.491 95.5,220.5C 94.8333,220.5 94.5,220.167 94.5,219.5C 94.5,213.5 94.5,207.5 94.5,201.5C 96.1667,201.5 97.8333,201.5 99.5,201.5 Z"/></g>
<g><path style="opacity:1" fill="#323b64" d="M 220.5,219.5 C 224.459,214.332 224.459,209.165 220.5,204C 213.833,200.668 209.833,202.668 208.5,210C 208.934,212.634 209.767,215.134 211,217.5C 211.816,218.823 212.983,219.489 214.5,219.5C 214.158,220.338 213.492,220.672 212.5,220.5C 204.861,214.85 204.528,208.683 211.5,202C 222.722,199.888 227.222,204.388 225,215.5C 224.252,217.751 222.752,219.084 220.5,219.5 Z"/></g>
<g><path style="opacity:1" fill="#f3f6f8" d="M 220.5,219.5 C 218.5,219.5 216.5,219.5 214.5,219.5C 212.983,219.489 211.816,218.823 211,217.5C 209.767,215.134 208.934,212.634 208.5,210C 209.833,202.668 213.833,200.668 220.5,204C 224.459,209.165 224.459,214.332 220.5,219.5 Z"/></g>
<g><path style="opacity:1" fill="#69728e" d="M 304.5,218.5 C 303.673,213.349 303.173,208.016 303,202.5C 302.827,208.348 302.327,214.015 301.5,219.5C 301.808,213.575 301.475,207.741 300.5,202C 303.817,201.502 307.15,201.335 310.5,201.5C 310.649,202.552 310.483,203.552 310,204.5C 308.556,202.845 306.722,202.178 304.5,202.5C 304.5,204.833 304.5,207.167 304.5,209.5C 306.5,209.5 308.5,209.5 310.5,209.5C 310.719,210.675 310.386,211.675 309.5,212.5C 307.929,211.691 306.262,211.357 304.5,211.5C 304.5,213.833 304.5,216.167 304.5,218.5 Z"/></g>
<g><path style="opacity:1" fill="#6f739e" d="M 150.5,201.5 C 151.167,201.5 151.833,201.5 152.5,201.5C 153.49,207.31 153.823,213.31 153.5,219.5C 152.673,214.015 152.173,208.348 152,202.5C 151.827,208.348 151.327,214.015 150.5,219.5C 150.5,213.5 150.5,207.5 150.5,201.5 Z"/></g>
<g><path style="opacity:1" fill="#121e55" d="M 64.5,219.5 C 63.5,220.833 62.5,220.833 61.5,219.5C 62.3272,214.015 62.8272,208.348 63,202.5C 63.1728,208.348 63.6728,214.015 64.5,219.5 Z"/></g>
<g><path style="opacity:1" fill="#1f2558" d="M 97.5,218.5 C 100.5,219.167 103.5,219.833 106.5,220.5C 102.833,220.5 99.1667,220.5 95.5,220.5C 95.3338,214.491 95.5005,208.491 96,202.5C 96.1733,208.016 96.6733,213.349 97.5,218.5 Z"/></g>
<g><path style="opacity:1" fill="#c5d3ee" d="M 278.5,201.5 C 277.183,207.678 277.183,214.012 278.5,220.5C 279.487,217.232 279.82,213.898 279.5,210.5C 283.167,210.5 286.833,210.5 290.5,210.5C 290.81,213.713 290.477,216.713 289.5,219.5C 289.5,216.833 289.5,214.167 289.5,211.5C 286.5,211.5 283.5,211.5 280.5,211.5C 280.223,214.448 280.556,217.281 281.5,220C 280.095,221.269 278.429,221.769 276.5,221.5C 276.795,214.774 276.462,208.108 275.5,201.5C 276.614,200.224 277.614,200.224 278.5,201.5 Z"/></g>
<g><path style="opacity:1" fill="#67738e" d="M 60.5,201.5 C 61.8333,201.5 63.1667,201.5 64.5,201.5C 64.5,207.5 64.5,213.5 64.5,219.5C 63.6728,214.015 63.1728,208.348 63,202.5C 62.8272,208.348 62.3272,214.015 61.5,219.5C 61.7886,213.409 61.4553,207.409 60.5,201.5 Z"/></g>
<g><path style="opacity:1" fill="#a3aace" d="M 268.5,203.5 C 267.167,203.5 265.833,203.5 264.5,203.5C 264.5,208.833 264.5,214.167 264.5,219.5C 263.511,214.025 263.178,208.358 263.5,202.5C 265.415,202.216 267.081,202.549 268.5,203.5 Z"/></g>
<g><path style="opacity:1" fill="#51597e" d="M 49.5,201.5 C 51.1992,201.34 52.8659,201.506 54.5,202C 53.8519,208.112 53.1853,214.279 52.5,220.5C 51.8933,220.376 51.56,220.043 51.5,219.5C 52.0431,219.44 52.3764,219.107 52.5,218.5C 51.8075,217.482 51.1408,216.482 50.5,215.5C 51.1627,213.527 51.4961,211.361 51.5,209C 51.3689,206.223 50.7023,203.723 49.5,201.5 Z"/></g>
<g><path style="opacity:1" fill="#252f50" d="M 16.5,216.5 C 17.2623,218.262 18.5956,219.262 20.5,219.5C 20.5,220.167 20.1667,220.5 19.5,220.5C 16.2984,220.463 14.6317,218.797 14.5,215.5C 14.3343,211.154 14.501,206.821 15,202.5C 15.1745,207.351 15.6745,212.018 16.5,216.5 Z"/></g>
<g><path style="opacity:1" fill="#474a67" d="M 27.5,201.5 C 27.8333,201.5 28.1667,201.5 28.5,201.5C 28.5,206.167 28.5,210.833 28.5,215.5C 26.9063,220.125 23.9063,221.791 19.5,220.5C 20.1667,220.5 20.5,220.167 20.5,219.5C 23.8784,220.109 25.8784,218.776 26.5,215.5C 27.4861,211.03 27.8195,206.363 27.5,201.5 Z"/></g>
<g><path style="opacity:1" fill="#aeb2c7" d="M 94.5,219.5 C 94.5,220.167 94.8333,220.5 95.5,220.5C 99.1667,220.5 102.833,220.5 106.5,220.5C 102.317,221.811 97.9838,221.811 93.5,220.5C 93.6236,219.893 93.9569,219.56 94.5,219.5 Z"/></g>
<g><path style="opacity:1" fill="#b1b5d6" d="M 119.5,213.5 C 118.5,213.5 117.5,213.5 116.5,213.5C 116.244,215.792 116.577,217.959 117.5,220C 116.57,220.991 115.404,221.491 114,221.5C 111.015,220.96 110.848,220.294 113.5,219.5C 113.56,220.043 113.893,220.376 114.5,220.5C 115.48,217.914 115.813,215.247 115.5,212.5C 117.099,212.232 118.432,212.566 119.5,213.5 Z"/></g>
<g><path style="opacity:1" fill="#717783" d="M 140.5,218.5 C 140.833,218.5 141.167,218.5 141.5,218.5C 139.152,221.618 136.152,222.285 132.5,220.5C 132.21,216.446 132.877,215.946 134.5,219C 136.598,219.678 138.598,219.511 140.5,218.5 Z"/></g>
<g><path style="opacity:1" fill="#767b91" d="M 214.5,219.5 C 216.5,219.5 218.5,219.5 220.5,219.5C 218.007,221.584 215.34,221.917 212.5,220.5C 213.492,220.672 214.158,220.338 214.5,219.5 Z"/></g>
<g><path style="opacity:1" fill="#717a97" d="M 16.5,235.5 C 15.5326,234.194 14.1993,233.527 12.5,233.5C 11.7984,232.369 13.1317,232.036 16.5,232.5C 16.5,233.5 16.5,234.5 16.5,235.5 Z"/></g>
<g><path style="opacity:1" fill="#64738c" d="M 70.5,234.5 C 70.1667,234.5 69.8333,234.5 69.5,234.5C 69.44,233.957 69.1067,233.624 68.5,233.5C 67.5027,240.803 67.1694,248.137 67.5,255.5C 66.8333,255.5 66.5,255.167 66.5,254.5C 66.5,247.833 66.5,241.167 66.5,234.5C 63.6354,234.055 61.1354,234.722 59,236.5C 58.6012,236.272 58.4346,235.938 58.5,235.5C 58.5,234.5 58.5,233.5 58.5,232.5C 64.8333,232.5 71.1667,232.5 77.5,232.5C 77.6495,233.552 77.4828,234.552 77,235.5C 74.9592,234.577 72.7925,234.244 70.5,234.5 Z"/></g>
<g><path style="opacity:1" fill="#7a839a" d="M 152.5,236.5 C 151.167,236.5 150.5,235.833 150.5,234.5C 145.167,233.167 139.833,233.167 134.5,234.5C 134.217,235.289 133.717,235.956 133,236.5C 132.51,235.207 132.343,233.873 132.5,232.5C 139.167,232.5 145.833,232.5 152.5,232.5C 152.5,233.833 152.5,235.167 152.5,236.5 Z"/></g>
<g><path style="opacity:1" fill="#afb9cb" d="M 172.5,233.5 C 167.637,233.181 162.97,233.514 158.5,234.5C 157.624,234.631 156.957,234.298 156.5,233.5C 161.986,232.185 167.32,232.185 172.5,233.5 Z"/></g>
<g><path style="opacity:1" fill="#717d90" d="M 188.5,233.5 C 187.833,233.5 187.5,233.833 187.5,234.5C 186.167,234.5 184.833,234.5 183.5,234.5C 182.5,233.167 181.5,233.167 180.5,234.5C 179.711,234.217 179.044,233.717 178.5,233C 182.027,232.192 185.36,232.359 188.5,233.5 Z"/></g>
<g><path style="opacity:1" fill="#74799c" d="M 229.5,233.5 C 228.833,233.5 228.5,233.833 228.5,234.5C 227.167,234.5 225.833,234.5 224.5,234.5C 223.5,233.167 222.5,233.167 221.5,234.5C 221.167,234.5 220.833,234.5 220.5,234.5C 220.389,233.883 220.056,233.383 219.5,233C 223.027,232.192 226.36,232.359 229.5,233.5 Z"/></g>
<g><path style="opacity:1" fill="#848b9d" d="M 286.5,234.5 C 285.833,233.167 285.167,233.167 284.5,234.5C 281.8,233.058 282.134,232.392 285.5,232.5C 288.866,232.392 289.2,233.058 286.5,234.5 Z"/></g>
<g><path style="opacity:1" fill="#777b96" d="M 306.5,233.5 C 305.209,233.263 304.209,233.596 303.5,234.5C 301.5,234.5 299.5,234.5 297.5,234.5C 296.5,233.167 295.5,233.167 294.5,234.5C 294.167,234.5 293.833,234.5 293.5,234.5C 293.082,233.778 292.416,233.278 291.5,233C 296.684,232.184 301.684,232.35 306.5,233.5 Z"/></g>
<g><path style="opacity:1" fill="#8490a2" d="M 86.5,236.5 C 85.596,235.791 85.2627,234.791 85.5,233.5C 84.209,233.263 83.209,233.596 82.5,234.5C 81.5266,234.013 80.5266,233.513 79.5,233C 82.1667,232.333 84.8333,232.333 87.5,233C 86.6634,234.011 86.33,235.178 86.5,236.5 Z"/></g>
<g><path style="opacity:1" fill="#2f3a57" d="M 158.5,234.5 C 162.97,233.514 167.637,233.181 172.5,233.5C 172.631,234.239 172.464,234.906 172,235.5C 168.943,234.549 165.777,234.216 162.5,234.5C 161.662,234.842 161.328,235.508 161.5,236.5C 160.833,235.833 160.167,235.167 159.5,234.5C 159.167,234.5 158.833,234.5 158.5,234.5 Z"/></g>
<g><path style="opacity:1" fill="#2b345b" d="M 228.5,234.5 C 228.5,233.833 228.833,233.5 229.5,233.5C 235.837,236.536 236.17,240.203 230.5,244.5C 231.435,241.887 231.602,239.221 231,236.5C 230.292,235.619 229.458,234.953 228.5,234.5 Z"/></g>
<g><path style="opacity:1" fill="#434f67" d="M 204.5,232.5 C 207.518,232.335 210.518,232.502 213.5,233C 214.922,238.355 214.256,238.689 211.5,234C 208.183,233.023 205.516,233.856 203.5,236.5C 202.833,236.5 202.167,236.5 201.5,236.5C 201.771,234.57 202.771,233.236 204.5,232.5 Z"/></g>
<g><path style="opacity:1" fill="#353e6c" d="M 256.5,244.5 C 256.944,248.332 258.278,251.832 260.5,255C 259.207,255.49 257.873,255.657 256.5,255.5C 257.222,247.844 254.055,245.177 247,247.5C 246.023,249.74 245.523,252.073 245.5,254.5C 244.5,255.833 243.5,255.833 242.5,254.5C 244.846,246.961 247.679,239.627 251,232.5C 252.759,236.644 254.592,240.644 256.5,244.5 Z"/></g>
<g><path style="opacity:1" fill="#f3f6fa" d="M 183.5,234.5 C 184.833,234.5 186.167,234.5 187.5,234.5C 188.458,234.953 189.292,235.619 190,236.5C 190.602,239.221 190.435,241.887 189.5,244.5C 189.167,244.5 188.833,244.5 188.5,244.5C 186.833,244.5 185.167,244.5 183.5,244.5C 183.5,241.167 183.5,237.833 183.5,234.5 Z"/></g>
<g><path style="opacity:1" fill="#283971" d="M 12.5,233.5 C 14.1993,233.527 15.5326,234.194 16.5,235.5C 17.9072,240.061 18.9072,244.728 19.5,249.5C 19.5,250.833 20.1667,251.5 21.5,251.5C 21.762,252.978 21.4287,254.311 20.5,255.5C 17.2226,248.33 14.5559,240.996 12.5,233.5 Z"/></g>
<g><path style="opacity:1" fill="#324570" d="M 105.5,252.5 C 105.092,253.643 104.425,254.643 103.5,255.5C 101.432,251.363 99.9315,247.03 99,242.5C 98.5776,240.574 97.4109,239.574 95.5,239.5C 95.2471,237.173 95.9137,235.173 97.5,233.5C 99.938,238.711 102.105,244.045 104,249.5C 106.216,244.856 108.05,240.023 109.5,235C 109.974,233.392 110.641,233.226 111.5,234.5C 109.694,240.586 107.694,246.586 105.5,252.5 Z"/></g>
<g><path style="opacity:1" fill="#9eb2e1" d="M 251.5,239.5 C 250.833,239.5 250.167,239.5 249.5,239.5C 250.167,236.833 250.833,236.833 251.5,239.5 Z"/></g>
<g><path style="opacity:1" fill="#f5f8f9" d="M 297.5,234.5 C 299.5,234.5 301.5,234.5 303.5,234.5C 311.636,237.107 314.136,242.441 311,250.5C 309.961,251.71 308.794,252.71 307.5,253.5C 304.272,254.414 300.939,254.747 297.5,254.5C 297.5,247.833 297.5,241.167 297.5,234.5 Z"/></g>
<g><path style="opacity:1" fill="#bec3d9" d="M 69.5,234.5 C 69.8333,234.5 70.1667,234.5 70.5,234.5C 70.5,236.167 70.5,237.833 70.5,239.5C 69.9539,245.067 70.6206,250.4 72.5,255.5C 69.8333,256.833 67.1667,256.833 64.5,255.5C 64.9569,254.702 65.6236,254.369 66.5,254.5C 66.5,255.167 66.8333,255.5 67.5,255.5C 69.4612,248.913 70.1279,241.913 69.5,234.5 Z"/></g>
<g><path style="opacity:1" fill="#26385d" d="M 150.5,234.5 C 148.167,234.5 145.833,234.5 143.5,234.5C 142.833,237.5 142.167,240.5 141.5,243.5C 141.5,240.5 141.5,237.5 141.5,234.5C 139.167,234.5 136.833,234.5 134.5,234.5C 139.833,233.167 145.167,233.167 150.5,234.5 Z"/></g>
<g><path style="opacity:1" fill="#c9d6ea" d="M 220.5,234.5 C 220.833,234.5 221.167,234.5 221.5,234.5C 221.5,241.5 221.5,248.5 221.5,255.5C 222.791,255.737 223.791,255.404 224.5,254.5C 225.289,254.783 225.956,255.283 226.5,256C 224.098,256.814 221.765,256.647 219.5,255.5C 220.464,248.558 220.797,241.558 220.5,234.5 Z"/></g>
<g><path style="opacity:1" fill="#e1e7ec" d="M 224.5,234.5 C 225.833,234.5 227.167,234.5 228.5,234.5C 229.458,234.953 230.292,235.619 231,236.5C 231.602,239.221 231.435,241.887 230.5,244.5C 229.522,244.811 228.855,245.478 228.5,246.5C 230.14,249.468 232.14,252.135 234.5,254.5C 230.5,254.5 228.5,252.5 228.5,248.5C 227.178,248.67 226.011,248.337 225,247.5C 224.506,249.134 224.34,250.801 224.5,252.5C 224.851,246.693 224.851,240.693 224.5,234.5 Z"/></g>
<g><path style="opacity:1" fill="#39457a" d="M 127.5,255.5 C 128.235,247.967 124.902,244.967 117.5,246.5C 117.167,249.167 116.833,251.833 116.5,254.5C 115.614,255.776 114.614,255.776 113.5,254.5C 115.798,247.243 118.632,240.243 122,233.5C 125.644,240.256 128.81,247.256 131.5,254.5C 130.311,255.429 128.978,255.762 127.5,255.5 Z"/></g>
<g><path style="opacity:1" fill="#b0c0df" d="M 162.5,234.5 C 162.5,237.167 162.5,239.833 162.5,242.5C 164.833,242.5 167.167,242.5 169.5,242.5C 167.052,243.473 164.385,243.806 161.5,243.5C 161.5,241.167 161.5,238.833 161.5,236.5C 161.328,235.508 161.662,234.842 162.5,234.5 Z"/></g>
<g><path style="opacity:1" fill="#354065" d="M 187.5,234.5 C 187.5,233.833 187.833,233.5 188.5,233.5C 190.371,233.859 191.871,234.859 193,236.5C 193.705,240.083 192.538,242.749 189.5,244.5C 190.435,241.887 190.602,239.221 190,236.5C 189.292,235.619 188.458,234.953 187.5,234.5 Z"/></g>
<g><path style="opacity:1" fill="#464b72" d="M 95.5,239.5 C 95.5848,242.649 94.5848,245.316 92.5,247.5C 92.4152,244.351 93.4152,241.684 95.5,239.5 Z"/></g>
<g><path style="opacity:1" fill="#122864" d="M 53.5,254.5 C 52.1667,255.833 50.8333,255.833 49.5,254.5C 50.1666,247.655 50.8333,240.655 51.5,233.5C 52.1667,240.655 52.8334,247.655 53.5,254.5 Z"/></g>
<g><path style="opacity:1" fill="#2e3973" d="M 82.5,234.5 C 83.209,233.596 84.209,233.263 85.5,233.5C 85.2627,234.791 85.596,235.791 86.5,236.5C 87.9149,241.078 88.9149,245.745 89.5,250.5C 90.1098,251.391 90.4431,252.391 90.5,253.5C 90.6309,254.376 90.2975,255.043 89.5,255.5C 87.8686,251.911 86.5353,248.245 85.5,244.5C 84.7903,240.975 83.7903,237.642 82.5,234.5 Z"/></g>
<g><path style="opacity:1" fill="#0f266a" d="M 159.5,234.5 C 160.167,235.167 160.833,235.833 161.5,236.5C 161.5,238.833 161.5,241.167 161.5,243.5C 161.5,243.833 161.5,244.167 161.5,244.5C 161.187,248.042 161.521,251.375 162.5,254.5C 161.791,255.404 160.791,255.737 159.5,255.5C 159.5,248.5 159.5,241.5 159.5,234.5 Z"/></g>
<g><path style="opacity:1" fill="#455374" d="M 26.5,236.5 C 26.7822,237.778 27.4489,238.778 28.5,239.5C 27.6236,239.369 26.9569,239.702 26.5,240.5C 25.058,244.376 23.3913,248.043 21.5,251.5C 20.1667,251.5 19.5,250.833 19.5,249.5C 20.1174,249.611 20.6174,249.944 21,250.5C 22.7628,245.694 24.5961,241.028 26.5,236.5 Z"/></g>
<g><path style="opacity:1" fill="#93a5cc" d="M 53.5,254.5 C 52.8334,247.655 52.1667,240.655 51.5,233.5C 50.8333,240.655 50.1666,247.655 49.5,254.5C 49.5,247.167 49.5,239.833 49.5,232.5C 50.8333,232.5 52.1667,232.5 53.5,232.5C 53.5,239.833 53.5,247.167 53.5,254.5 Z"/></g>
<g><path style="opacity:1" fill="#374252" d="M 169.5,242.5 C 170.598,243.601 170.765,244.934 170,246.5C 167.519,244.686 164.685,244.02 161.5,244.5C 161.5,244.167 161.5,243.833 161.5,243.5C 164.385,243.806 167.052,243.473 169.5,242.5 Z"/></g>
<g><path style="opacity:1" fill="#e2eaf4" d="M 249.5,239.5 C 250.167,239.5 250.833,239.5 251.5,239.5C 251.877,241.258 252.544,242.925 253.5,244.5C 251.5,245.833 249.5,245.833 247.5,244.5C 248.456,242.925 249.123,241.258 249.5,239.5 Z"/></g>
<g><path style="opacity:1" fill="#e8f1f5" d="M 121.5,238.5 C 123.086,240.081 124.086,242.081 124.5,244.5C 122.955,245.452 121.288,245.785 119.5,245.5C 119.767,243.035 120.434,240.701 121.5,238.5 Z"/></g>
<g><path style="opacity:1" fill="#1b2870" d="M 69.5,234.5 C 70.1279,241.913 69.4612,248.913 67.5,255.5C 67.1694,248.137 67.5027,240.803 68.5,233.5C 69.1067,233.624 69.44,233.957 69.5,234.5 Z"/></g>
<g><path style="opacity:1" fill="#253666" d="M 201.5,236.5 C 202.167,236.5 202.833,236.5 203.5,236.5C 204.203,238.716 205.536,240.549 207.5,242C 212.879,243.677 215.379,247.177 215,252.5C 214.292,253.381 213.458,254.047 212.5,254.5C 212.167,254.5 211.833,254.5 211.5,254.5C 212.511,252.598 212.678,250.598 212,248.5C 208.053,246.22 204.387,243.553 201,240.5C 200.235,238.934 200.402,237.601 201.5,236.5 Z"/></g>
<g><path style="opacity:1" fill="#364174" d="M 284.5,234.5 C 285.167,233.167 285.833,233.167 286.5,234.5C 286.83,241.532 286.497,248.532 285.5,255.5C 279.708,250.172 274.208,244.506 269,238.5C 268.501,243.823 268.334,249.156 268.5,254.5C 268.44,255.043 268.107,255.376 267.5,255.5C 266.503,248.197 266.169,240.863 266.5,233.5C 266.435,233.062 266.601,232.728 267,232.5C 272.649,238.416 278.315,244.416 284,250.5C 284.499,245.177 284.666,239.844 284.5,234.5 Z"/></g>
<g><path style="opacity:1" fill="#2b3760" d="M 303.5,234.5 C 304.209,233.596 305.209,233.263 306.5,233.5C 311.982,234.819 314.649,238.319 314.5,244C 315.011,249.698 312.677,253.531 307.5,255.5C 307.5,254.833 307.5,254.167 307.5,253.5C 308.794,252.71 309.961,251.71 311,250.5C 314.136,242.441 311.636,237.107 303.5,234.5 Z"/></g>
<g><path style="opacity:1" fill="#163466" d="M 183.5,234.5 C 182.167,240.833 182.167,247.167 183.5,253.5C 183.179,255.048 182.179,255.715 180.5,255.5C 180.5,248.5 180.5,241.5 180.5,234.5C 181.5,233.167 182.5,233.167 183.5,234.5 Z"/></g>
<g><path style="opacity:1" fill="#64729d" d="M 183.5,234.5 C 183.5,237.833 183.5,241.167 183.5,244.5C 185.167,244.5 186.833,244.5 188.5,244.5C 188.167,245.167 187.833,245.833 187.5,246.5C 186.167,246.5 184.833,246.5 183.5,246.5C 183.5,248.833 183.5,251.167 183.5,253.5C 182.167,247.167 182.167,240.833 183.5,234.5 Z"/></g>
<g><path style="opacity:1" fill="#314275" d="M 297.5,234.5 C 297.5,241.167 297.5,247.833 297.5,254.5C 297.5,254.833 297.5,255.167 297.5,255.5C 296.5,255.5 295.5,255.5 294.5,255.5C 294.5,248.5 294.5,241.5 294.5,234.5C 295.5,233.167 296.5,233.167 297.5,234.5 Z"/></g>
<g><path style="opacity:1" fill="#092e6c" d="M 143.5,234.5 C 143.188,241.422 143.521,248.256 144.5,255C 142.934,255.765 141.601,255.598 140.5,254.5C 141.482,251.038 141.815,247.371 141.5,243.5C 142.167,240.5 142.833,237.5 143.5,234.5 Z"/></g>
<g><path style="opacity:1" fill="#253472" d="M 224.5,234.5 C 224.851,240.693 224.851,246.693 224.5,252.5C 224.5,253.167 224.5,253.833 224.5,254.5C 223.791,255.404 222.791,255.737 221.5,255.5C 221.5,248.5 221.5,241.5 221.5,234.5C 222.5,233.167 223.5,233.167 224.5,234.5 Z"/></g>
<g><path style="opacity:1" fill="#dce3ef" d="M 266.5,233.5 C 266.169,240.863 266.503,248.197 267.5,255.5C 268.107,255.376 268.44,255.043 268.5,254.5C 269.675,254.281 270.675,254.614 271.5,255.5C 266.348,256.814 261.348,256.814 256.5,255.5C 257.873,255.657 259.207,255.49 260.5,255C 258.278,251.832 256.944,248.332 256.5,244.5C 258.5,245.643 259.167,247.143 258.5,249C 259.996,249.507 261.163,249.007 262,247.5C 262.92,250.101 263.587,252.768 264,255.5C 264.333,255.167 264.667,254.833 265,254.5C 265.171,247.321 265.671,240.321 266.5,233.5 Z"/></g>
<g><path style="opacity:1" fill="#c5d6ea" d="M 293.5,234.5 C 293.833,234.5 294.167,234.5 294.5,234.5C 294.5,241.5 294.5,248.5 294.5,255.5C 295.5,255.5 296.5,255.5 297.5,255.5C 298.492,255.328 299.158,255.662 299.5,256.5C 297.076,256.808 294.743,256.474 292.5,255.5C 293.464,248.558 293.797,241.558 293.5,234.5 Z"/></g>
<g><path style="opacity:1" fill="#46596c" d="M 92.5,247.5 C 92.7406,249.898 92.0739,251.898 90.5,253.5C 90.4431,252.391 90.1098,251.391 89.5,250.5C 90.7281,249.694 91.7281,248.694 92.5,247.5 Z"/></g>
<g><path style="opacity:1" fill="#2e326e" d="M 230.5,244.5 C 231.75,246.932 233.25,249.266 235,251.5C 236.129,253.141 237.629,254.141 239.5,254.5C 238.791,255.404 237.791,255.737 236.5,255.5C 235.833,255.167 235.167,254.833 234.5,254.5C 232.14,252.135 230.14,249.468 228.5,246.5C 228.855,245.478 229.522,244.811 230.5,244.5 Z"/></g>
<g><path style="opacity:1" fill="#38436e" d="M 35.5,251.5 C 34.1667,251.5 33.5,252.167 33.5,253.5C 31.4624,249.06 29.7958,244.393 28.5,239.5C 27.4489,238.778 26.7822,237.778 26.5,236.5C 26.8586,234.515 27.692,233.849 29,234.5C 30.7015,239.994 32.7015,245.327 35,250.5C 36.0265,246.392 37.3599,242.392 39,238.5C 39.7429,236.559 39.5762,234.726 38.5,233C 40.5,232.333 42.5,232.333 44.5,233C 42.3965,234.693 40.8965,236.86 40,239.5C 39.0948,243.837 37.5948,247.837 35.5,251.5 Z"/></g>
<g><path style="opacity:1" fill="#2b3464" d="M 188.5,244.5 C 188.833,244.5 189.167,244.5 189.5,244.5C 191.927,248.105 194.593,251.605 197.5,255C 196.906,255.464 196.239,255.631 195.5,255.5C 194.833,255.167 194.167,254.833 193.5,254.5C 191.115,252.116 189.115,249.45 187.5,246.5C 187.833,245.833 188.167,245.167 188.5,244.5 Z"/></g>
<g><path style="opacity:1" fill="#2e2e87" d="M 35.5,251.5 C 35.762,252.978 35.4287,254.311 34.5,255.5C 33.7025,255.043 33.3691,254.376 33.5,253.5C 33.5,252.167 34.1667,251.5 35.5,251.5 Z"/></g>
<g><path style="opacity:1" fill="#6b727d" d="M 158.5,234.5 C 158.833,234.5 159.167,234.5 159.5,234.5C 159.5,241.5 159.5,248.5 159.5,255.5C 160.791,255.737 161.791,255.404 162.5,254.5C 166.351,255.029 169.851,254.362 173,252.5C 173.579,253.928 173.412,255.262 172.5,256.5C 167.156,256.666 161.823,256.499 156.5,256C 158.434,249.789 159.101,243.289 158.5,236.5C 158.5,235.833 158.5,235.167 158.5,234.5 Z"/></g>
<g><path style="opacity:1" fill="#545a73" d="M 211.5,254.5 C 211.833,254.5 212.167,254.5 212.5,254.5C 212.5,255.167 212.167,255.5 211.5,255.5C 208.887,256.435 206.221,256.602 203.5,256C 201.637,254.582 201.137,252.749 202,250.5C 202.309,251.766 202.809,252.933 203.5,254C 206.146,254.497 208.813,254.664 211.5,254.5 Z"/></g>
<g><path style="opacity:1" fill="#abafb8" d="M 239.5,254.5 C 240.5,254.5 241.5,254.5 242.5,254.5C 243.5,255.833 244.5,255.833 245.5,254.5C 246.043,254.56 246.376,254.893 246.5,255.5C 243.02,256.806 239.687,256.806 236.5,255.5C 237.791,255.737 238.791,255.404 239.5,254.5 Z"/></g>
<g><path style="opacity:1" fill="#656779" d="M 307.5,253.5 C 307.5,254.167 307.5,254.833 307.5,255.5C 304.904,256.265 302.237,256.599 299.5,256.5C 299.158,255.662 298.492,255.328 297.5,255.5C 297.5,255.167 297.5,254.833 297.5,254.5C 300.939,254.747 304.272,254.414 307.5,253.5 Z"/></g>
<g><path style="opacity:1" fill="#504f67" d="M 315.5,252.5 C 317.847,254.03 318.014,256.03 316,258.5C 315.505,256.527 315.338,254.527 315.5,252.5 Z"/></g>
<g><path style="opacity:1" fill="#4b596b" d="M 60.5,269.5 C 62.6282,268.371 64.9615,268.204 67.5,269C 68.9423,269.377 69.9423,270.21 70.5,271.5C 70.1667,271.5 69.8333,271.5 69.5,271.5C 66.6916,270.071 63.6916,269.405 60.5,269.5 Z"/></g>
<g><path style="opacity:1" fill="#979fad" d="M 141.5,270.5 C 140.833,269.167 140.167,269.167 139.5,270.5C 136.8,269.058 137.134,268.392 140.5,268.5C 143.866,268.392 144.2,269.058 141.5,270.5 Z"/></g>
<g><path style="opacity:1" fill="#7f8ea5" d="M 212.5,269.5 C 212.5,269.833 212.5,270.167 212.5,270.5C 211.5,270.5 210.5,270.5 209.5,270.5C 209.5,272.833 209.5,275.167 209.5,277.5C 208.834,274.972 208.168,272.306 207.5,269.5C 206.893,269.624 206.56,269.957 206.5,270.5C 205.711,270.217 205.044,269.717 204.5,269C 207.367,268.199 210.034,268.366 212.5,269.5 Z"/></g>
<g><path style="opacity:1" fill="#565a73" d="M 266.5,274.5 C 266.167,274.5 265.833,274.5 265.5,274.5C 266.203,272.284 267.536,270.451 269.5,269C 273.821,268.501 278.154,268.334 282.5,268.5C 282.66,270.199 282.494,271.866 282,273.5C 278.161,268.766 273.661,268.266 268.5,272C 267.934,272.995 267.267,273.828 266.5,274.5 Z"/></g>
<g><path style="opacity:1" fill="#555d6e" d="M 192.5,274.5 C 191.833,273.5 191.167,272.5 190.5,271.5C 192.675,268.438 195.509,267.772 199,269.5C 199.515,271.939 199.015,272.105 197.5,270C 193.508,268.823 191.842,270.323 192.5,274.5 Z"/></g>
<g><path style="opacity:1" fill="#8ea0bb" d="M 47.5,269.5 C 45.8498,275.938 44.8498,282.605 44.5,289.5C 44.8122,282.578 44.4788,275.744 43.5,269C 46.838,268.124 48.1714,268.291 47.5,269.5 Z"/></g>
<g><path style="opacity:1" fill="#303a5c" d="M 150.5,269.5 C 154.812,274.146 159.145,278.813 163.5,283.5C 164.167,278.833 164.833,274.167 165.5,269.5C 166.833,275.833 166.833,282.167 165.5,288.5C 160.876,283.375 156.043,278.375 151,273.5C 150.198,278.419 150.365,283.252 151.5,288C 150.251,288.74 149.251,288.573 148.5,287.5C 149.167,281.5 149.833,275.5 150.5,269.5 Z"/></g>
<g><path style="opacity:1" fill="#a1a7c0" d="M 177.5,270.5 C 177.44,269.957 177.107,269.624 176.5,269.5C 175.833,275.654 175.167,281.654 174.5,287.5C 174.666,281.824 174.499,276.157 174,270.5C 173.5,270 173,269.5 172.5,269C 176.486,268.501 180.486,268.334 184.5,268.5C 184.719,269.675 184.386,270.675 183.5,271.5C 181.591,270.652 179.591,270.318 177.5,270.5 Z"/></g>
<g><path style="opacity:1" fill="#20306c" d="M 224.5,284.5 C 223.514,280.03 223.181,275.363 223.5,270.5C 223.56,269.957 223.893,269.624 224.5,269.5C 225.814,274.652 225.814,279.652 224.5,284.5 Z"/></g>
<g><path style="opacity:1" fill="#344273" d="M 237.5,286.5 C 237.167,286.5 236.833,286.5 236.5,286.5C 237.078,280.85 237.745,275.183 238.5,269.5C 240.01,275.35 239.677,281.017 237.5,286.5 Z"/></g>
<g><path style="opacity:1" fill="#f0f4f6" d="M 249.5,270.5 C 250.833,270.5 252.167,270.5 253.5,270.5C 254.117,270.611 254.617,270.944 255,271.5C 255.497,273.81 255.663,276.143 255.5,278.5C 253.621,279.341 251.621,279.675 249.5,279.5C 249.5,276.5 249.5,273.5 249.5,270.5 Z"/></g>
<g><path style="opacity:1" fill="#7d839d" d="M 125.5,269.5 C 124.167,275.5 124.167,281.5 125.5,287.5C 126.067,288.42 125.401,288.754 123.5,288.5C 123.17,281.8 123.503,275.134 124.5,268.5C 125.107,268.624 125.44,268.957 125.5,269.5 Z"/></g>
<g><path style="opacity:1" fill="#979dbd" d="M 150.5,269.5 C 149.833,275.5 149.167,281.5 148.5,287.5C 148.17,281.132 148.504,274.798 149.5,268.5C 150.107,268.624 150.44,268.957 150.5,269.5 Z"/></g>
<g><path style="opacity:1" fill="#263167" d="M 253.5,270.5 C 253.5,269.833 253.833,269.5 254.5,269.5C 256.714,270.392 257.714,272.058 257.5,274.5C 257.66,276.355 256.993,277.688 255.5,278.5C 255.663,276.143 255.497,273.81 255,271.5C 254.617,270.944 254.117,270.611 253.5,270.5 Z"/></g>
<g><path style="opacity:1" fill="#f4f8f7" d="M 60.5,269.5 C 63.6916,269.405 66.6916,270.071 69.5,271.5C 72.4604,276.824 72.1271,281.824 68.5,286.5C 66.283,287.369 63.9496,287.702 61.5,287.5C 57.8947,285.46 56.228,282.294 56.5,278C 56.6667,276.5 56.8333,275 57,273.5C 58.1022,272.051 59.2689,270.718 60.5,269.5 Z"/></g>
<g><path style="opacity:1" fill="#383c70" d="M 60.5,269.5 C 59.2689,270.718 58.1022,272.051 57,273.5C 56.8333,275 56.6667,276.5 56.5,278C 56.228,282.294 57.8947,285.46 61.5,287.5C 61.1583,288.338 60.4916,288.672 59.5,288.5C 55.3771,286.371 53.3771,282.871 53.5,278C 53.8418,273.463 56.1752,270.63 60.5,269.5 Z"/></g>
<g><path style="opacity:1" fill="#bac3de" d="M 97.5,287.5 C 96.8334,281.654 96.1668,275.654 95.5,269.5C 94.52,272.086 94.1866,274.753 94.5,277.5C 90.6286,277.815 86.9619,277.482 83.5,276.5C 86.8333,276.5 90.1667,276.5 93.5,276.5C 93.9452,273.635 93.2785,271.135 91.5,269C 93.4727,268.505 95.4727,268.338 97.5,268.5C 97.5,274.833 97.5,281.167 97.5,287.5 Z"/></g>
<g><path style="opacity:1" fill="#3a3f78" d="M 125.5,269.5 C 130.163,274.331 134.663,279.331 139,284.5C 139.499,279.845 139.666,275.179 139.5,270.5C 140.167,269.167 140.833,269.167 141.5,270.5C 141.5,276.167 141.5,281.833 141.5,287.5C 140.448,287.649 139.448,287.483 138.5,287C 134.305,282.474 130.139,277.974 126,273.5C 125.501,278.155 125.334,282.821 125.5,287.5C 124.167,281.5 124.167,275.5 125.5,269.5 Z"/></g>
<g><path style="opacity:1" fill="#98aabb" d="M 254.5,269.5 C 253.833,269.5 253.5,269.833 253.5,270.5C 252.167,270.5 250.833,270.5 249.5,270.5C 249.44,269.957 249.107,269.624 248.5,269.5C 247.167,275.833 247.167,282.167 248.5,288.5C 249.107,288.376 249.44,288.043 249.5,287.5C 250.376,287.369 251.043,287.702 251.5,288.5C 249.5,289.833 247.5,289.833 245.5,288.5C 246.462,281.892 246.795,275.226 246.5,268.5C 249.385,268.194 252.052,268.527 254.5,269.5 Z"/></g>
<g><path style="opacity:1" fill="#2a316a" d="M 69.5,271.5 C 69.8333,271.5 70.1667,271.5 70.5,271.5C 71.7498,271.577 72.5831,272.244 73,273.5C 74.007,278.111 73.3403,282.445 71,286.5C 70.3292,287.252 69.4959,287.586 68.5,287.5C 68.5,287.167 68.5,286.833 68.5,286.5C 72.1271,281.824 72.4604,276.824 69.5,271.5 Z"/></g>
<g><path style="opacity:1" fill="#4d5a83" d="M 83.5,276.5 C 86.9619,277.482 90.6286,277.815 94.5,277.5C 94.5,277.833 94.5,278.167 94.5,278.5C 90.8333,278.5 87.1667,278.5 83.5,278.5C 83.5,281.833 83.5,285.167 83.5,288.5C 82.5,288.5 81.5,288.5 80.5,288.5C 80.7929,282.107 80.4596,275.773 79.5,269.5C 81.0745,268.369 82.7412,268.202 84.5,269C 83.565,271.381 83.2317,273.881 83.5,276.5 Z"/></g>
<g><path style="opacity:1" fill="#202a60" d="M 190.5,271.5 C 191.167,272.5 191.833,273.5 192.5,274.5C 192.833,275.5 193.5,276.167 194.5,276.5C 194.5,277.5 194.5,278.5 194.5,279.5C 191.107,277.927 189.774,275.26 190.5,271.5 Z"/></g>
<g><path style="opacity:1" fill="#212e6c" d="M 249.5,270.5 C 249.5,273.5 249.5,276.5 249.5,279.5C 249.5,279.833 249.5,280.167 249.5,280.5C 249.5,282.833 249.5,285.167 249.5,287.5C 249.44,288.043 249.107,288.376 248.5,288.5C 247.167,282.167 247.167,275.833 248.5,269.5C 249.107,269.624 249.44,269.957 249.5,270.5 Z"/></g>
<g><path style="opacity:1" fill="#304654" d="M 194.5,276.5 C 195.833,277.167 196.833,278.167 197.5,279.5C 196.662,279.842 196.328,280.508 196.5,281.5C 195.5,281.167 194.833,280.5 194.5,279.5C 194.5,278.5 194.5,277.5 194.5,276.5 Z"/></g>
<g><path style="opacity:1" fill="#434b6c" d="M 109.5,269.5 C 110.376,269.369 111.043,269.702 111.5,270.5C 113.507,276.678 116.174,282.511 119.5,288C 118.207,288.49 116.873,288.657 115.5,288.5C 115.338,282.67 112.338,280.337 106.5,281.5C 106.007,283.806 105.674,286.139 105.5,288.5C 104.448,288.649 103.448,288.483 102.5,288C 105.523,282.099 107.856,275.932 109.5,269.5 Z"/></g>
<g><path style="opacity:1" fill="#e6ecfa" d="M 109.5,273.5 C 110.725,274.937 111.725,276.604 112.5,278.5C 111.311,279.429 109.978,279.762 108.5,279.5C 108.517,277.435 108.85,275.435 109.5,273.5 Z"/></g>
<g><path style="opacity:1" fill="#2a3c67" d="M 177.5,270.5 C 177.5,272.833 177.5,275.167 177.5,277.5C 179.5,277.5 181.5,277.5 183.5,277.5C 183.649,278.552 183.483,279.552 183,280.5C 181.556,278.845 179.722,278.178 177.5,278.5C 177.5,281.5 177.5,284.5 177.5,287.5C 180.079,287.917 182.246,287.25 184,285.5C 184.483,286.448 184.649,287.448 184.5,288.5C 180.958,288.813 177.625,288.479 174.5,287.5C 175.167,281.654 175.833,275.654 176.5,269.5C 177.107,269.624 177.44,269.957 177.5,270.5 Z"/></g>
<g><path style="opacity:1" fill="#384571" d="M 209.5,277.5 C 213.548,276.738 214.548,274.404 212.5,270.5C 212.5,270.167 212.5,269.833 212.5,269.5C 213.496,269.414 214.329,269.748 215,270.5C 215.711,272.899 215.544,275.232 214.5,277.5C 219.928,286.443 217.261,290.109 206.5,288.5C 206.5,282.5 206.5,276.5 206.5,270.5C 206.56,269.957 206.893,269.624 207.5,269.5C 208.168,272.306 208.834,274.972 209.5,277.5 Z"/></g>
<g><path style="opacity:1" fill="#f4f6f8" d="M 209.5,278.5 C 215.263,278.783 216.93,281.616 214.5,287C 212.866,287.494 211.199,287.66 209.5,287.5C 209.5,284.5 209.5,281.5 209.5,278.5 Z"/></g>
<g><path style="opacity:1" fill="#f3f6fb" d="M 212.5,270.5 C 214.548,274.404 213.548,276.738 209.5,277.5C 209.5,275.167 209.5,272.833 209.5,270.5C 210.5,270.5 211.5,270.5 212.5,270.5 Z"/></g>
<g><path style="opacity:1" fill="#183262" d="M 97.5,287.5 C 96.3991,288.598 95.0657,288.765 93.5,288C 94.4505,284.943 94.7839,281.777 94.5,278.5C 94.5,278.167 94.5,277.833 94.5,277.5C 94.1866,274.753 94.52,272.086 95.5,269.5C 96.1668,275.654 96.8334,281.654 97.5,287.5 Z"/></g>
<g><path style="opacity:1" fill="#1e3066" d="M 47.5,269.5 C 47.6663,276.175 47.4996,282.842 47,289.5C 45.4934,293.236 44.6601,293.236 44.5,289.5C 44.8498,282.605 45.8498,275.938 47.5,269.5 Z"/></g>
<g><path style="opacity:1" fill="#333578" d="M 197.5,279.5 C 200.059,282.09 200.059,284.757 197.5,287.5C 197.5,287.167 197.5,286.833 197.5,286.5C 197.634,284.708 197.301,283.042 196.5,281.5C 196.328,280.508 196.662,279.842 197.5,279.5 Z"/></g>
<g><path style="opacity:1" fill="#363e64" d="M 255.5,278.5 C 256.811,282.326 259.144,285.493 262.5,288C 260.711,288.52 259.044,288.187 257.5,287C 256.416,282.739 253.749,280.572 249.5,280.5C 249.5,280.167 249.5,279.833 249.5,279.5C 251.621,279.675 253.621,279.341 255.5,278.5 Z"/></g>
<g><path style="opacity:1" fill="#263460" d="M 265.5,274.5 C 265.833,274.5 266.167,274.5 266.5,274.5C 265.404,281.332 268.071,285.665 274.5,287.5C 273.791,288.404 272.791,288.737 271.5,288.5C 265.406,285.543 263.406,280.876 265.5,274.5 Z"/></g>
<g><path style="opacity:1" fill="#757a92" d="M 68.5,286.5 C 68.5,286.833 68.5,287.167 68.5,287.5C 67.0539,288.94 65.2206,289.607 63,289.5C 61.6153,289.486 60.4486,289.152 59.5,288.5C 60.4916,288.672 61.1583,288.338 61.5,287.5C 63.9496,287.702 66.283,287.369 68.5,286.5 Z"/></g>
<g><path style="opacity:1" fill="#5d6181" d="M 197.5,286.5 C 197.5,286.833 197.5,287.167 197.5,287.5C 194.432,290.4 191.765,290.067 189.5,286.5C 190.123,284.186 190.456,284.519 190.5,287.5C 192.95,287.702 195.283,287.369 197.5,286.5 Z"/></g>
<g><path style="opacity:1" fill="#64708a" d="M 236.5,286.5 C 236.833,286.5 237.167,286.5 237.5,286.5C 234.247,289.648 230.581,290.148 226.5,288C 225.177,287.184 224.511,286.017 224.5,284.5C 225.814,279.652 225.814,274.652 224.5,269.5C 223.893,269.624 223.56,269.957 223.5,270.5C 222.711,270.217 222.044,269.717 221.5,269C 223.5,268.333 225.5,268.333 227.5,269C 226.361,274.416 226.194,279.916 227,285.5C 229.887,287.839 233.054,288.172 236.5,286.5 Z"/></g>
<g><path style="opacity:1" fill="#5f6a8b" d="M 271.5,288.5 C 272.791,288.737 273.791,288.404 274.5,287.5C 276.167,287.5 277.833,287.5 279.5,287.5C 279.98,284.315 279.314,281.481 277.5,279C 279.5,278.333 281.5,278.333 283.5,279C 282.718,281.74 282.218,284.574 282,287.5C 278.553,289.622 275.053,289.955 271.5,288.5 Z"/></g>
</svg>
